<?xml version='1.0' encoding='utf-8'?>
<svg xmlns="http://www.w3.org/2000/svg" version="1.1" width="1720px" height="1229px" viewBox="-320 450 1720 1229"> <g id="layer1"> <g style="fill:rgb(0,174,199); fill-opacity:1.0; stroke-linejoin: miter"> <path d="M-339.56207,436.8453C-339.82022,436.8453,-340.06784,436.94772,-340.2503,437.13025C-340.43283,437.31305,-340.53546,437.56046,-340.53546,437.81854L-340.5343,1694.1871C-340.5343,1694.7249,-340.09857,1695.1604,-339.56107,1695.1604L1419.5645,1695.1611C1419.823,1695.1611,1420.0702,1695.059,1420.2527,1694.8762C1420.4353,1694.694,1420.538,1694.4463,1420.538,1694.1885L1420.5366,437.81955C1420.5366,437.28186,1420.1011,436.8463,1419.5634,436.8463L-339.56207,436.8453 Z"/> </g> <g style="fill:rgb(0,0,0); fill-opacity:1.0; stroke-linejoin: miter"> <path d="M112.13133,783.03815C80.56154,783.03815,54.680634,808.98535,54.680626,840.55475L54.68066,1357.6843C54.680664,1389.2538,80.56166,1415.1348,112.13137,1415.1348L995.49506,1415.1665C1027.0647,1415.1349,1052.9459,1389.254,1052.9459,1357.6844L1052.9459,840.557C1052.946,808.9877,1027.0651,783.0407,995.4951,783.04065L112.13133,783.07275 Z M112.13133,815.94055L995.4951,815.97174C1009.4068,815.9402,1020.0436,826.641,1020.04346,840.5544L1020.0434,1357.6846C1020.0434,1371.5979,1009.4061,1382.2323,995.49506,1382.2323L112.13137,1382.2643C98.21994,1382.2323,87.58328,1371.5979,87.58328,1357.6846L87.58325,840.5575C87.58325,826.64404,98.22022,815.9435,112.13133,815.9435 Z"/> </g> <g style="fill:rgb(0,0,0); fill-opacity:1.0; stroke-linejoin: miter"> <path d="M2.0565827,1424.632C2.056585,1459.3624,26.038982,1487.3333,55.81897,1487.3331L1051.8074,1487.3652C1081.5868,1487.3336,1105.5698,1459.3687,1105.5698,1424.6322L2.0563915,1424.6665 Z"/> </g> <g style="fill:rgb(34,43,50); fill-opacity:1.0; stroke-linejoin: miter"> <path d="M471.65573,1437.7946L635.9999,1437.8287C638.5357,1437.7947,640.57715,1439.8354,640.57715,1442.3746C640.57715,1444.908,638.5357,1446.952,635.9999,1446.952L471.65573,1446.9835C469.1199,1446.9519,467.07858,1444.9133,467.07858,1442.3745C467.07858,1439.841,469.1199,1437.7946,471.65573,1437.7946 Z"/> </g> <g style="fill:rgb(34,43,50); fill-opacity:1.0; stroke-linejoin: miter"> <path d="M112.13136,815.4577C112.1132,815.4577,112.09515,815.45874,112.0773,815.4609L112.0738,815.4609C97.92256,815.4903,87.10042,826.39795,87.10042,840.5575L87.10045,1357.6846C87.10045,1371.865,97.953285,1382.7147,112.130264,1382.7473L112.1314,1382.7473L995.49506,1382.7155C1009.6726,1382.7155,1020.52606,1371.8645,1020.52606,1357.6846L1020.5261,840.5544C1020.52625,826.39734,1009.7074,815.4889,995.5567,815.48883C995.5322,815.48883,995.5201,815.48883,995.4929,815.48895L112.13136,815.4577 Z"/> </g> <g style="fill:rgb(237,228,115); fill-opacity:1.0; stroke-linejoin: miter"> <path d="M500.8694,953.9327L499.17346,963.347Q497.49005,969.60614,495.06207,975.20483Q494.3136,978.4176,486.1025,990.5159Q479.01248,999.7322,468.94345,1006.30695Q458.81168,1012.86835,447.68646,1015.22754Q442.12372,1016.40753,436.31287,1016.537Q433.56256,1017.258,418.3211,1014.5621Q404.21307,1009.6111,402.1499,1007.6599Q397.23358,1004.75806,392.94952,1001.05524Q384.3808,993.64923,378.34036,983.0383Q365.06522,957.5226,370.73044,932.31647Q373.3928,919.7482,379.34634,909.5573Q382.3231,904.4616,386.12274,899.96124Q387.56677,897.28955,399.25543,887.8949Q418.4536,874.2504,443.32135,876.45197Q446.76733,876.34174,460.5715,881.0892Q465.89322,883.2976,470.64407,886.3896Q480.14554,892.57324,487.36264,902.2898Q495.56427,914.77814,496.08044,917.7447Q498.28357,923.1896,499.55035,929.0253Q502.08344,940.69696,500.8694,953.9327"/> </g> <g style="fill:rgb(0,0,0); fill-opacity:1.0; stroke-linejoin: miter"> <path d="M399.9502,956.08276L399.7179,953.9666C397.47974,936.38934,397.65826,925.0802,399.7182,919.8178C401.21802,915.9868,403.5135,911.81903,407.14087,907.5059C410.84033,903.10724,414.81372,899.76636,419.05457,897.46387C421.82153,895.96106,425.16138,895.252,429.08392,895.45276C432.5813,895.6314,440.60852,894.29376,446.69202,896.78394C457.73416,901.3026,457.9645,902.0078,460.82626,905.26666C466.76022,912.02325,471.49277,915.65344,471.70602,918.7428C472.32138,920.4518,471.86374,925.2171,470.36813,933.0447C469.36563,938.2915,466.30722,949.9983,461.15836,968.15796L399.9502,956.08276 Z"/> </g> <g style="fill:rgb(255,184,157); fill-opacity:1.0; stroke-linejoin: miter"> <path d="M430.01556,1016.9029L405.04572,1008.41724L407.85266,989.4416C405.0985,985.9878,403.5074,983.02985,402.83466,980.6314C402.18402,978.31134,401.79205,974.19836,401.901,968.21936C400.12415,969.3555,398.75177,968.00775,397.67126,964.20844C396.53998,960.2318,395.77954,956.0408,396.07605,951.62866C396.37537,947.1751,397.71295,944.9415,399.51685,944.8776C400.60364,945.15485,401.61084,948.0962,402.53796,953.69946C404.76538,943.37305,406.3924,936.2726,407.3595,932.38306C408.2544,928.7836,409.42657,925.72125,410.97937,923.2394C412.54297,920.74066,414.73053,919.74457,417.4983,920.22314L420.32336,920.8978C427.35406,923.501,431.33667,924.79803,432.27142,924.7886C432.88885,924.99536,434.81256,925.208,438.04236,925.4262L450.27365,925.47546C451.9366,925.40656,453.65952,925.98004,455.44974,927.1851C456.225,927.7065,457.08792,928.89545,457.5336,930.8961C459.17807,938.2789,459.5737,942.5068,459.62973,943.4761C459.82468,946.8436,459.54526,953.3641,458.38773,963.06903C460.41714,958.96704,462.68204,956.19055,465.18228,954.741C466.803,954.3017,466.94003,956.2471,465.5521,960.56396C463.78616,966.05695,462.14816,970.02655,460.70364,972.5C459.07382,975.2909,457.3488,977.071,455.50467,977.8269L450.6924,988.01764L449.61893,1012.93677L430.01556,1016.9029 Z"/> </g> <g style="fill:rgb(244,67,54); fill-opacity:0.12941177; stroke-linejoin: miter"> <path d="M442.73804,994.0498L441.34143,994.71423Q436.38184,997.073,435.61218,997.2692Q433.84125,997.9481,432.2555,998.39734Q429.4162,999.30396,425.98846,999.25696Q423.26788,999.1005,419.54236,997.5151Q418.98425,997.33154,416.20892,995.74646Q414.50745,994.7498,412.2165,993.2899L427.23102,1010.53186L442.73804,994.0498"/> </g> <g style="fill:rgb(255,255,255); fill-opacity:0.99607843; stroke-linejoin: miter"> <path d="M450.5577,974.8129L450.5576,974.8137Q471.56412,938.9351,450.5577,974.8129"/> </g> <g style="fill:rgb(255,255,255); fill-opacity:0.99607843; stroke-linejoin: miter"> <path d="M449.56888,974.75854L449.56863,974.7594Q471.13382,941.44214,449.56888,974.75854"/> </g> <g style="fill:rgb(255,255,255); fill-opacity:0.99607843; stroke-linejoin: miter"> <path d="M441.31976,948.4839L441.7401,948.371Q444.06152,947.71893,445.40497,947.7622Q445.78967,947.77185,446.15857,947.83527L446.63165,947.9447L446.9934,948.0642Q447.35083,948.1975,447.69434,948.37933Q447.87256,948.4481,448.7017,949.0043Q449.19736,949.34296,450.31302,950.2744Q448.50284,951.0945,447.52783,951.32043Q446.7453,951.51886,445.99512,951.4755L445.54456,951.416L445.17255,951.32043L444.8058,951.18677Q444.07837,950.87225,443.38116,950.3313Q442.33765,949.50305,441.31976,948.4839"/> </g> <g style="fill:rgb(84,69,69); fill-opacity:1.0; stroke-linejoin: miter"> <path d="M444.92365,947.6941L444.825,947.78174Q444.16235,948.3301,443.94788,948.916Q443.7398,949.423,443.80396,950.8417Q444.836,951.2796,445.55762,951.41864Q446.1798,951.55084,447.57867,951.5694Q448.301,950.6985,448.4152,950.1959Q448.57346,949.70544,448.3961,948.59235Q446.9994,947.95667,446.4323,947.82336Q445.86755,947.6597,444.92365,947.6941"/> </g> <g style="fill:rgb(0,0,0); fill-opacity:1.0; stroke-linejoin: miter"> <path d="M442.7616,944.4983L442.76135,944.4983Q444.1847,944.059,444.97186,943.9537Q445.28687,943.9079,445.60095,943.8947L445.91473,943.8917L446.2282,943.90875L446.54108,943.94727Q446.92767,944.0111,447.3294,944.14777L447.59717,944.24603Q447.86475,944.3511,448.13162,944.4794Q448.66635,944.7056,450.26163,945.7194L442.7616,944.4983"/> </g> <g style="fill:rgb(0,0,0); fill-opacity:0.99607843; stroke-linejoin: miter"> <path d="M451.1924,924.48486L451.1923,924.4852L451.1924,924.4852L451.1924,924.48486"/> </g> <g style="fill:rgb(255,255,255); fill-opacity:0.99607843; stroke-linejoin: miter"> <path d="M423.16138,945.62714L422.8111,945.3683Q420.88763,943.9145,419.62115,943.4641Q419.25946,943.3324,418.89282,943.2574L418.4126,943.1863L418.0323,943.1654Q417.65063,943.1595,417.26465,943.20245Q417.07355,943.20154,416.09888,943.4165Q415.51355,943.55133,414.13458,944.0117Q415.52057,945.4359,416.34595,946.00256Q417.00183,946.4724,417.71613,946.70624L418.1574,946.8146L418.53864,946.86163L418.92896,946.87054Q419.7209,946.8438,420.56732,946.59534Q421.84137,946.20447,423.16138,945.62714"/> </g> <g style="fill:rgb(84,69,69); fill-opacity:1.0; stroke-linejoin: miter"> <path d="M420.09412,943.5767L420.15393,943.6936Q420.57092,944.44586,420.55658,945.0705Q420.56543,945.6177,419.98743,946.9155Q418.86664,946.9466,418.1441,946.8124Q417.51654,946.7088,416.2074,946.2155Q415.85327,945.1401,415.93018,944.63116Q415.96185,944.11676,416.5338,943.1446Q418.06592,943.06305,418.6424,943.14636Q419.22784,943.1998,420.09412,943.5767"/> </g> <g style="fill:rgb(0,0,0); fill-opacity:1.0; stroke-linejoin: miter"> <path d="M423.2738,941.38965L423.2738,941.38995Q422.109,940.4621,421.4148,940.0764Q421.13806,939.9187,420.85052,939.7917L420.55957,939.674L420.26154,939.57574L419.956,939.49805Q419.5728,939.4161,419.14868,939.3971L418.86383,939.39014Q418.57654,939.39014,418.2813,939.41235Q417.7008,939.4276,415.8454,939.7896L423.2738,941.38965"/> </g> <g style="fill:rgb(255,0,0); fill-opacity:0.07058824; stroke-linejoin: miter"> <path d="M418.2317,975.9981L418.83374,975.83417Q423.41833,974.5735,425.01483,974.6544Q425.95886,974.61945,427.20972,974.9662Q428.10016,975.2234,429.40173,975.8458Q431.0572,975.0836,432.00397,974.82654Q433.31702,974.4902,433.9818,974.70087Q434.8399,974.92255,435.53107,975.55646Q436.35492,976.28253,437.54913,977.9368Q434.60388,979.0108,433.88623,979.17065Q430.31042,980.2054,427.2376,979.5567Q425.4032,979.1697,423.4831,978.3947Q420.3023,977.0589,418.2317,975.9981"/> </g> <g style="fill:rgb(255,0,0); fill-opacity:0.07058824; stroke-linejoin: miter"> <path d="M425.17883,959.95337L427.90698,963.17523L430.63513,966.3965Q433.35773,963.5793,436.08002,960.762Q433.38165,962.1699,430.6833,963.57794L425.17883,959.95337"/> </g> <g style="fill:rgb(0,0,0); fill-opacity:1.0; stroke-linejoin: miter"> <path d="M428.32446,970.77606L427.59283,973.1312L414.9118,975.16113Q415.01074,973.13385,415.48834,971.4606Q415.83002,970.3679,416.62054,969.6954Q417.48676,969.02765,418.7232,968.9727Q418.90485,968.92975,420.10156,968.9846Q421.09363,969.06104,422.23236,969.27527Q423.89453,969.5531,428.32446,970.77606"/> </g> <g style="fill:rgb(242,226,226); fill-opacity:0.99607843; stroke-linejoin: miter"> <path d="M437.4203,946.2155L437.4203,946.21655L437.42017,946.2155L437.4203,946.21655"/> </g> <g style="fill:rgb(0,0,0); fill-opacity:1.0; stroke-linejoin: miter"> <path d="M430.29523,970.40344L430.4973,972.86163L442.43372,977.59955Q442.65497,975.9711,442.66638,975.66516Q442.75116,974.11707,442.67535,973.8625Q442.57947,972.7214,441.95398,971.8929Q441.30792,971.0688,439.95007,970.69867Q438.4588,970.2886,436.09076,970.249Q434.1944,970.20166,430.29523,970.40344"/> </g> <g style="fill:rgb(83,93,102); fill-opacity:1.0; stroke-linejoin: miter"> <path d="M441.82166,1040.157L441.8211,1040.1572C391.44006,1043.9115,347.55362,1006.1135,343.7988,955.73224L343.7983,955.73254C340.0441,905.35095,377.84256,861.4648,428.22382,857.7096L428.22327,857.7096C478.6052,853.9543,522.492,891.7522,526.2467,942.13367L526.24634,942.13446C530.00165,992.51495,492.2036,1036.4014,441.82166,1040.157L441.8211,1040.1572 M439.77203,1012.6554L439.77124,1012.65607C474.96506,1010.0325,501.36804,979.3764,498.74512,944.1832L498.7445,944.1837C496.12195,908.991,465.46616,882.5872,430.27338,885.2106L430.27295,885.2109C395.08063,887.83374,368.6774,918.48926,371.30002,953.6822L371.2996,953.6822C373.92294,988.8748,404.57892,1015.27783,439.77203,1012.6554 Z"/> </g> <g style="fill:rgb(125,248,119); fill-opacity:1.0; stroke-linejoin: miter"> <path d="M980.0575,957.0435L978.1919,967.1627Q969.74854,997.42017,943.94293,1013.16174Q917.97516,1028.87,886.0831,1021.64435Q855.8253,1013.2015,840.0832,987.3954Q835.04675,979.0598,832.2572,969.59454L830.1083,959.94617Q828.56055,950.0654,829.73444,939.65497Q834.2348,907.8093,857.89655,889.0542Q881.55786,870.2995,913.5903,873.18774Q945.436,877.6884,964.1909,901.34985Q982.9458,925.01166,980.0575,957.0435"/> </g> <g style="fill:rgb(165,179,188); fill-opacity:1.0; stroke-linejoin: miter"> <path d="M887.7373,992.8395L888.0303,996.01953L888.02966,996.02026L888.0225,996.0189L888.02606,996.0193L888.0225,996.01953L888.0196,996.02Q888.021,996.0193,888.0225,996.0189L888.0225,996.01953L888.0225,996.0189L888.03,996.02026L887.7373,992.8395 Z"/> </g> <g style="fill:rgb(0,0,0); fill-opacity:1.0; stroke-linejoin: miter"> <path d="M882.1809,970.2525L880.6991,967.40204C876.22626,958.8463,873.29016,952.2942,872.0734,947.6965C870.3863,941.31964,870.0839,936.8603,870.4777,934.272C871.2761,929.022,872.69305,924.24414,875.3076,920.05054C878.83954,914.3863,882.6423,910.6372,886.59644,908.66C889.96497,906.9749,894.20276,906.0357,899.36035,905.941C905.3736,902.19257,909.43835,900.3221,911.4406,899.7988C914.4856,899.0026,917.54346,898.974,920.8355,900.0223C924.3753,901.14905,929.24634,904.6295,935.33325,910.726C941.99567,917.39825,946.6475,923.44995,949.3798,928.811C950.87585,931.7462,951.7909,934.65643,952.0848,937.5605L952.1368,939.71674C952.0797,941.1463,951.8674,942.5637,951.50134,943.9697C950.2193,948.88904,948.3244,961.11914,942.6079,968.55804L945.44446,969.8859L882.1809,970.2525 Z"/> </g> <g style="fill:rgb(255,194,157); fill-opacity:1.0; stroke-linejoin: miter"> <path d="M891.334,1020.75793L889.41235,1020.80365L891.3314,996.63684C887.686,991.74036,884.50964,986.2399,881.8332,980.32935C880.42145,977.2119,879.2023,970.5572,879.4974,962.9049C879.965,950.7785,882.02484,941.7764,883.8902,935.84656C885.17865,931.75165,886.2813,929.5564,886.63727,928.9653C888.1999,926.36786,889.943,924.22546,891.83954,922.3575C893.791,920.43585,898.2289,917.7293,905.5005,914.5728C916.53156,926.6667,926.5362,935.0557,935.51404,939.73926L939.94934,953.95984L942.5976,965.03424L944.4041,955.04816C945.7373,957.1936,946.60657,959.22974,946.994,961.1587C947.68634,964.6077,947.2321,969.1268,945.5522,974.6829C944.5502,977.9957,942.9409,979.4469,940.82086,979.06476C940.9588,983.1347,938.80115,989.29974,935.8256,994.57794L937.17566,1010.9089L935.2828,1024.1345C928.4961,1029.0117,921.76654,1030.7544,915.0213,1029.8694C909.0442,1029.0857,903.7619,1028.1,899.27997,1026.2886C895.7901,1024.8782,893.1572,1022.99664,891.334,1020.75793 Z"/> </g> <g style="fill:rgb(255,0,0); fill-opacity:0.11764706; stroke-linejoin: miter"> <path d="M904.94385,970.92737L911.34375,975.8757L917.09344,969.3664L911.17523,972.7599L904.94385,970.92737"/> </g> <g style="fill:rgb(255,0,0); fill-opacity:0.08235294; stroke-linejoin: miter"> <path d="M889.285,993.2838L890.44037,994.3171Q896.07916,999.7104,901.7806,1002.2633Q907.57513,1004.7484,914.8939,1004.3075Q922.0158,1003.7626,926.4203,1001.1786Q930.5001,998.86646,934.8051,992.11725L915.55615,1020.2874L889.285,993.2838"/> </g> <g style="fill:rgb(0,0,0); fill-opacity:1.0; stroke-linejoin: miter"> <path d="M892.282,953.52124L892.5935,953.6019Q893.99396,953.96643,894.7647,954.12885Q895.2674,954.2457,896.2213,954.39545Q897.7071,954.6,898.69324,954.5205Q899.20514,954.4863,899.7064,954.3993L900.20557,954.30096Q900.7024,954.1903,901.1923,954.0415Q902.4176,953.6777,904.5657,952.7237L892.282,953.52124"/> </g> <g style="fill:rgb(0,0,0); fill-opacity:1.0; stroke-linejoin: miter"> <path d="M919.1249,952.28876L919.4368,952.36884Q921.01605,952.77747,921.7252,952.92267Q922.2161,953.02924,923.0646,953.16315Q923.245,953.1945,923.9998,953.26843Q924.29266,953.29254,924.5613,953.3031Q925.04126,953.32776,925.65027,953.2804Q926.3028,953.2323,927.0486,953.0685Q927.7319,952.91315,928.3187,952.7207Q929.49927,952.339,931.4088,951.4911L919.1249,952.28876"/> </g> <g style="fill:rgb(0,0,0); fill-opacity:1.0; stroke-linejoin: miter"> <path d="M892.55066,942.3221L892.55066,942.32306Q895.221,942.7838,896.6194,942.9383Q897.18085,943.0017,897.7219,943.04205L898.25714,943.07446L898.7795,943.0926L899.28845,943.094L899.78314,943.07745L900.26373,943.0452L900.7322,942.9981Q901.1941,942.9432,901.6363,942.86414Q902.74695,942.6731,904.5923,942.1454L892.55066,942.3221"/> </g> <g style="fill:rgb(0,0,0); fill-opacity:1.0; stroke-linejoin: miter"> <path d="M918.10645,940.04376L918.10645,940.0443Q919.2936,940.25,920.22906,940.39417Q921.00146,940.5193,922.17505,940.6606Q923.07776,940.7623,923.8129,940.7975L924.3354,940.81433L924.84424,940.8164L925.33905,940.8L925.8195,940.76776Q926.47864,940.71204,927.1922,940.5858Q928.63525,940.3136,930.14795,939.86804L918.10645,940.04376"/> </g> <g style="fill:rgb(255,0,0); fill-opacity:0.11764706; stroke-linejoin: miter"> <path d="M901.3911,983.7148L901.8934,983.58264Q906.4612,982.39014,907.6702,982.3349Q909.2828,982.1512,911.5554,982.24316Q913.41956,982.0616,914.3566,982.04834Q916.27094,982.0205,918.29675,982.2319Q920.773,982.4746,925.8154,983.20306Q918.8651,984.1751,916.8178,984.3638Q914.9588,984.5492,913.66736,984.64954Q912.2695,984.7392,911.1879,984.76306Q909.8727,984.7789,909.6102,984.76355Q909.08527,984.75244,908.5604,984.7258Q907.5105,984.67255,906.46375,984.55786Q905.51263,984.45215,904.405,984.27386Q902.4129,983.9369,901.3911,983.7148"/> </g> <g style="fill:rgb(83,93,102); fill-opacity:1.0; stroke-linejoin: miter"> <path d="M999.0278,982.8847L999.0278,982.8846C1017.4152,931.7603,990.8768,875.4091,939.75256,857.0211L939.7529,857.0204C888.62787,838.63324,832.2765,865.17145,813.8888,916.29663L813.8889,916.29596C795.50134,967.4213,822.03986,1023.7726,873.1649,1042.1604L873.16504,1042.1594C924.28973,1060.5485,980.6399,1034.0093,999.0278,982.8847L999.0278,982.8846 M971.1206,972.8477L971.1211,972.8474C958.2764,1008.5599,918.9142,1027.0974,883.2022,1014.2535L883.2022,1014.25287C847.4901,1001.4088,828.9517,962.0459,841.79584,926.3339L841.7961,926.3333C854.6406,890.622,894.00305,872.0842,929.71515,884.9283L929.7155,884.92773C965.42694,897.77313,983.96466,937.1354,971.1206,972.8477 Z"/> </g> <g style="fill:rgb(255,252,252); fill-opacity:1.0; stroke-linejoin: miter"> <path d="M718.92395,1222.929L722.0357,1239.6008Q736.2117,1289.4288,780.01447,1315.221Q824.0927,1340.9552,878.391,1328.8467Q929.9155,1314.742,956.8541,1272.1034Q965.4722,1258.3306,970.2764,1242.7102L973.99115,1226.7917Q976.68506,1210.4935,974.75214,1193.3375Q967.2924,1140.8678,927.1566,1110.0956Q887.0207,1079.3228,832.5119,1084.282Q778.3098,1091.8971,746.2584,1131.02Q714.20746,1170.1414,718.92395,1222.929"/> </g> <g style="fill:rgb(0,0,0); fill-opacity:1.0; stroke-linejoin: miter"> <path d="M897.2314,1344.4948L937.734,1331.6156C940.5172,1274.4531,935.1987,1276.7775,934.26404,1254.9415C933.0057,1225.5425,929.7599,1204.422,925.8222,1191.187C924.0078,1185.0913,920.8912,1175.2969,914.64886,1162.3978C909.22217,1151.1844,902.6714,1141.6821,895.66327,1133.5184C883.20087,1119.0022,869.62695,1112.5925,854.7901,1114.0355C842.36664,1115.2433,835.33746,1116.4438,833.73615,1117.9885C822.90027,1121.4856,814.9214,1125.0625,810.08026,1129.0648C800.883,1136.6667,793.6987,1149.0232,789.16187,1166.0458C787.6491,1171.7191,788.35345,1176.8514,790.269,1181.2542C792.49677,1186.3694,797.2196,1192.0916,804.50885,1198.3892L826.4046,1278.0231L792.4497,1342.1359L823.65076,1351.605L862.386,1274.2018L832.7163,1214.5164C849.0755,1215.8289,860.6476,1218.2194,867.7135,1221.0121C876.38495,1224.4408,882.5291,1230.388,885.67194,1239.6116C886.73773,1242.738,887.12683,1246.2753,887.72784,1250.0658C887.9882,1251.7075,888.51996,1257.9851,887.79755,1269.0073C886.8796,1283.0122,884.5526,1297.877,881.67847,1313.6669L862.1609,1347.9341 Z"/> </g> <g style="fill:rgb(255,0,0); fill-opacity:0.99607843; stroke-linejoin: miter"> <path d="M891.438,1270.1587L888.62286,1271.083Q875.93884,1275.2699,869.46735,1276.5786Q864.82794,1277.704,858.3575,1277.9458Q848.54346,1278.3942,833.8796,1270.4979L823.1822,1318.7664Q840.57135,1322.823,851.1804,1322.3934Q863.1857,1322.1549,885.8072,1317.5035L891.438,1270.1587"/> </g> <g style="fill:rgb(255,22,0); fill-opacity:1.0; stroke-linejoin: miter"> <path d="M911.86523,1296.0364L911.8655,1296.0377Q972.679,1247.1415,911.86523,1296.0364"/> </g> <g style="fill:rgb(75,45,35); fill-opacity:1.0; stroke-linejoin: miter"> <path d="M858.95984,1275.5433Q859.9367,1277.4751,860.6442,1279.1456Q859.9367,1277.4751,858.9626,1275.5433 Z"/> </g> <g style="fill:rgb(0,0,0); fill-opacity:1.0; stroke-linejoin: miter"> <path d="M797.84235,1211.3739L797.84235,1211.3739L804.0211,1243.9276Q802.0942,1225.92,800.16675,1207.9127L797.84235,1211.3739"/> </g> <g style="fill:rgb(0,0,0); fill-opacity:1.0; stroke-linejoin: miter"> <path d="M810.308,1242.9489L810.308,1242.9489Q814.20154,1271.6825,818.09595,1300.4163Q816.53033,1274.0039,814.9655,1247.5901L810.308,1242.9489"/> </g> <g style="fill:rgb(0,0,0); fill-opacity:1.0; stroke-linejoin: miter"> <path d="M817.62177,1253.4066L817.62177,1253.4066L820.6831,1301.7056Q821.0584,1276.3704,821.434,1251.0352L817.62177,1253.4066"/> </g> <g style="fill:rgb(255,189,156); fill-opacity:1.0; stroke-linejoin: miter"> <path d="M868.2393,1334.6289L829.91907,1322.893C825.27295,1311.4187,850.62366,1260.3026,842.90027,1252.94C827.33716,1260.4318,818.3322,1262.399,815.4647,1259.2054C814.55853,1258.1964,813.6529,1256.9813,813.1369,1255.1592L811.48315,1245.27C810.98444,1243.4047,810.1512,1242.093,808.9805,1241.336L807.0097,1232.2555L801.598,1227.03L798.4417,1217.458C793.90564,1216.0205,791.1735,1214.288,790.064,1212.3639C789.42773,1211.2599,789.5332,1209.3672,790.5185,1206.5613C791.1393,1204.7936,793.4467,1200.5247,797.47986,1193.7675C795.0043,1191.3962,793.62787,1188.7268,793.35175,1185.7579C793.18933,1185.694,794.00464,1182.2637,793.9125,1175.4053C793.8155,1168.0356,792.9685,1164.2972,793.2558,1164.0834C793.3828,1161.8048,794.50714,1158.3994,795.7981,1153.6171C796.84576,1149.7391,798.3161,1147.8877,801.00964,1147.5973C807.293,1146.921,813.3299,1147.3024,819.289,1149.1189C820.728,1149.5569,824.0704,1151.8696,829.59534,1155.8583C831.5563,1157.2747,833.0137,1157.7343,833.5553,1157.9707C834.94586,1158.5773,840.07513,1159.9423,848.976,1162.1488C851.229,1162.7064,853.0979,1163.6653,854.6148,1164.7866C856.11365,1165.8959,857.30316,1167.2269,858.2348,1168.7142L862.5603,1176.9738C863.4519,1178.557,864.41486,1180.018,865.46277,1181.3444C867.6609,1184.1239,869.46747,1185.7217,870.8923,1186.0497C871.4176,1186.1709,871.8509,1185.9252,872.1722,1185.4135C873.3552,1181.0106,874.8315,1177.8511,876.551,1175.8887C881.8108,1169.8856,885.40015,1166.4576,887.2874,1165.481C891.6857,1163.2053,896.3753,1163.6904,900.36957,1168.1462C904.02954,1172.2295,903.5767,1180.7339,900.4816,1192.7899C899.9444,1194.8835,897.9747,1198.8129,894.26013,1204.5098C894.0157,1208.2188,893.2505,1210.6995,892.35547,1212.2073C891.3084,1213.97,889.28894,1214.5302,885.88873,1213.6636C887.77435,1235.968,888.685,1250.5549,888.82874,1257.4197C888.9882,1265.052,888.53314,1272.2092,887.256,1278.8958L882.3251,1325.6168 Z"/> </g> <g style="fill:rgb(255,255,255); fill-opacity:1.0; stroke-linejoin: miter"> <path d="M821.8701,1229.41L821.6413,1229.5298Q821.6532,1229.521,821.6717,1229.5105L821.69073,1229.4999Q821.7115,1229.4878,821.7385,1229.4741Q821.76514,1229.4613,821.7981,1229.4447Q821.8308,1229.4285,821.8696,1229.41L821.8701,1229.411"/> </g> <g style="fill:rgb(255,255,255); fill-opacity:1.0; stroke-linejoin: miter"> <path d="M818.4998,1224.2812L825.80444,1225.243L825.8036,1225.243Q825.80524,1225.243,825.80524,1225.2424L826.3879,1225.3198L826.3879,1225.3198L826.3879,1225.3198L827.34375,1225.4456L816.2752,1234.3146L814.4347,1234.4883L813.6241,1231.5416L807.56445,1234.4958Q807.5396,1234.5398,807.51465,1234.5831L807.0097,1232.2555L805.8336,1231.1195Q805.7657,1231.2329,805.7005,1231.3491L804.72003,1230.3485L804.8755,1230.1957L805.78467,1229.299L808.7688,1228.1202L808.76935,1228.1202L811.49774,1227.0437Q811.49963,1227.043,811.5004,1227.043L811.49963,1227.043L812.3006,1226.7267L818.4998,1224.2812 Z"/> </g> <g style="fill:rgb(255,255,255); fill-opacity:1.0; stroke-linejoin: miter"> <path d="M807.51526,1234.585L807.6348,1235.1351L807.20746,1235.1749Q807.3459,1234.8885,807.51416,1234.585 Z"/> </g> <g style="fill:rgb(255,0,0); fill-opacity:1.0; stroke-linejoin: miter"> <path d="M827.3799,1225.1311L825.638,1224.7296Q815.2936,1222.3728,813.0432,1222.1438Q810.1413,1221.754,809.3925,1221.8024Q808.04974,1221.7864,807.1147,1222.07Q806.2399,1222.355,805.79785,1222.8411Q805.1682,1223.5853,804.90314,1224.4984L801.6733,1227.2374L805.7005,1231.3491Q806.71814,1229.5391,807.9139,1228.6665Q809.19617,1227.8119,809.6439,1227.6824Q810.3421,1227.3788,811.24255,1227.1193Q814.8874,1225.9875,827.3799,1225.1311"/> </g> <g style="fill:rgb(255,0,0); fill-opacity:1.0; stroke-linejoin: miter"> <path d="M828.5688,1224.2566L807.56445,1234.4958Q806.1502,1236.9886,806.6986,1238.4995Q807.0416,1239.8792,810.3148,1242.8132Q815.08923,1240.4299,818.1958,1237.1504Q821.1737,1234.2445,828.5688,1224.2566"/> </g> <g style="fill:rgb(255,0,0); fill-opacity:0.10980392; stroke-linejoin: miter"> <path d="M808.2687,1214.3135L808.5462,1214.0726Q810.8452,1212.1311,811.7254,1210.9006Q812.7082,1209.5773,812.4275,1208.3928L812.246,1207.9208L811.9574,1207.4518Q811.4875,1206.8036,810.5406,1206.0686Q809.6657,1205.2712,805.2908,1202.9166Q811.4989,1205.1749,812.6984,1205.9551Q814.0138,1206.6718,814.62994,1207.3116L815.00024,1207.7753L815.20953,1208.2468Q815.52216,1209.2994,813.91174,1210.7334Q812.54846,1211.9594,808.2687,1214.3135"/> </g> <g style="fill:rgb(0,0,0); fill-opacity:0.1882353; stroke-linejoin: miter"> <path d="M802.9632,1213.6946L803.2032,1213.5912Q803.8059,1213.3364,804.2119,1213.1354Q804.8547,1212.8015,804.91943,1212.7146Q805.1077,1212.5634,805.1035,1212.4414Q805.10126,1212.3807,805.0509,1212.327L804.98895,1212.275Q804.914,1212.2246,804.79193,1212.1825Q804.458,1212.0671,803.7126,1211.9951Q802.85925,1211.9166,801.8722,1211.9365Q800.8384,1211.9583,800.1005,1212.0787L799.6831,1212.1626L799.3361,1212.2668L799.26526,1212.2938Q799.1676,1212.3209,798.91406,1212.5072Q798.826,1212.5839,798.7766,1212.6697Q798.6783,1212.8396,798.7343,1213.044Q798.8295,1213.3435,799.11334,1213.5862Q799.5971,1213.9335,799.79614,1213.9811Q800.2911,1214.1862,801.05756,1214.131Q801.42786,1214.0977,801.7964,1214.0128Q802.0625,1213.9646,802.9632,1213.6946"/> </g> <g style="fill:rgb(0,0,0); fill-opacity:1.0; stroke-linejoin: miter"> <path d="M804.9527,1179.3125L809.22675,1181.1523Q812.35474,1176.7,815.5106,1174.7908Q818.3822,1172.825,827.3089,1169.5304Q821.1126,1169.9081,818.0849,1170.4188Q816.86395,1170.6165,815.74,1170.8839L814.6463,1171.1738Q813.5797,1171.4836,812.64594,1171.889Q811.71716,1172.2983,810.9203,1172.8036Q810.4569,1173.0098,808.7702,1174.4946Q807.14056,1176.0217,804.9527,1179.3125"/> </g> <g style="fill:rgb(0,0,0); fill-opacity:1.0; stroke-linejoin: miter"> <path d="M798.2315,1186.3218L798.2315,1186.3218L794.00397,1188.5791Q793.35846,1186.9711,793.19684,1185.8392Q793.08453,1184.9163,793.192,1183.6246L797.01953,1183.1448L798.2315,1186.3218"/> </g> <g style="fill:rgb(255,255,255); fill-opacity:1.0; stroke-linejoin: miter"> <path d="M816.8667,1183.9287L817.02686,1184.4979Q817.464,1186.2755,818.2662,1187.4181Q818.54663,1187.776,818.90845,1187.9927L819.2961,1188.1654L819.7332,1188.2493L820.2265,1188.237L820.7791,1188.1217L821.3865,1187.9093L822.04553,1187.6085Q822.7291,1187.264,823.4936,1186.7782Q825.38574,1185.5992,829.41345,1182.3912Q825.66473,1180.8923,823.87134,1180.4297Q823.1466,1180.236,822.48914,1180.1282L821.8535,1180.0477Q821.2369,1179.991,820.7131,1180.0531Q819.57043,1180.1531,818.5769,1181.1376Q817.6994,1182.0793,816.8667,1183.9287"/> </g> <g style="fill:rgb(0,0,0); fill-opacity:1.0; stroke-linejoin: miter"> <path d="M825.74054,1185.1725L825.7011,1184.7935Q825.6047,1183.644,825.297,1182.6145Q825.082,1181.9338,824.65546,1181.3734Q824.43866,1181.0939,824.1531,1180.8555L823.8536,1180.6296Q823.5388,1180.4143,823.1779,1180.2521Q822.44794,1179.9236,821.63403,1179.8619Q819.9231,1179.7578,818.7298,1180.9286Q817.41907,1182.2566,817.52155,1183.8751Q817.56134,1184.2628,817.7024,1184.6396L817.86383,1185.0144Q818.04865,1185.3876,818.3071,1185.753Q818.93463,1186.6676,820.6313,1188.2576Q821.9123,1187.9818,822.78467,1187.4313Q823.6153,1186.9537,825.74054,1185.1725"/> </g> <g style="fill:rgb(0,0,0); fill-opacity:1.0; stroke-linejoin: miter"> <path d="M781.8673,1172.0928L781.8673,1172.0928L781.8673,1172.0947L781.8673,1172.0928"/> </g> <g style="fill:rgb(255,22,0); fill-opacity:0.101960786; stroke-linejoin: miter"> <path d="M842.98914,1252.9979L844.4082,1252.0491Q859.8732,1242.3958,873.6724,1228.3733L875.80756,1299.0385L863.9217,1284.2756L862.0424,1282.0724Q861.56714,1281.561,861.68823,1281.8993Q859.76074,1276.0176,853.38074,1265.7634Q850.2387,1260.441,842.98914,1252.9979"/> </g> <g style="fill:rgb(255,22,0); fill-opacity:1.0; stroke-linejoin: miter"> <path d="M855.7533,1277.9567L855.7533,1277.957L855.7533,1277.9567L855.7533,1277.9567"/> </g> <g style="fill:rgb(255,0,0); fill-opacity:0.99607843; stroke-linejoin: miter"> <path d="M840.12213,1274.794L841.3777,1275.918Q849.21436,1283.7279,858.1677,1283.5762Q860.97345,1283.8075,869.53436,1281.1702Q875.74896,1279.1301,888.2201,1273.4336L883.7983,1316.9908Q861.50586,1322.9796,851.7226,1323.4945Q841.6956,1324.4517,824.3677,1321.4058L840.12213,1274.794"/> </g> <g style="fill:rgb(0,0,0); fill-opacity:1.0; stroke-linejoin: miter"> <path d="M865.64276,1302.9445L865.6422,1302.9445L865.64276,1302.9445L865.6422,1302.9445L865.64276,1302.9445 Z"/> </g> <g style="fill:rgb(0,0,0); fill-opacity:1.0; stroke-linejoin: miter"> <path d="M865.64276,1302.9445L865.6422,1302.9445L865.64276,1302.9445L865.6422,1302.9445L865.64276,1302.9445 Z"/> </g> <g style="fill:rgb(83,93,102); fill-opacity:1.0; stroke-linejoin: miter"> <path d="M961.6786,1326.4232L961.6791,1326.422C1027.0936,1265.2987,1030.5704,1162.7157,969.4444,1097.3004L969.4451,1097.2994C908.31805,1031.8853,805.73627,1028.4077,740.3208,1089.5325L740.3215,1089.5321C674.9046,1150.6573,671.4273,1253.2399,732.553,1318.6553L732.55414,1318.6553C793.6795,1384.0712,896.2619,1387.5491,961.6786,1326.4232L961.6791,1326.422 M928.31104,1290.715L928.3123,1290.7142C882.6171,1333.4146,810.9601,1330.9839,768.26154,1285.2887L768.26245,1285.2878C725.56366,1239.595,727.99255,1167.9376,773.6863,1125.2399L773.6876,1125.2399C819.38165,1082.5426,891.0385,1084.972,933.736,1130.6663L933.7378,1130.6655C976.4346,1176.3608,974.0061,1248.0164,928.31104,1290.715 Z"/> </g> <g style="fill:rgb(135,183,253); fill-opacity:1.0; stroke-linejoin: miter"> <path d="M733.1928,942.85803L731.4967,952.2722Q728.1304,964.7914,721.78455,974.6685Q713.20123,986.4368,710.5908,987.99744Q706.3012,991.94543,701.26666,995.2335Q691.135,1001.7945,680.00946,1004.15375Q674.4469,1005.3336,668.6359,1005.4631Q665.8857,1006.18414,650.644,1003.4881Q636.5364,998.5374,634.4731,996.58606Q629.5567,993.6842,625.2724,989.9811Q616.7038,982.57513,610.6634,971.96405Q597.3882,946.4482,603.0533,921.24207Q605.7158,908.67377,611.6693,898.48285Q614.64624,893.3877,618.44574,888.8869Q619.88983,886.2154,631.57886,876.82104Q650.77686,863.1765,675.6448,865.3777Q688.00165,867.1444,698.0742,872.44464Q703.1104,875.0947,707.57526,878.6286Q718.23846,888.2344,719.68585,891.2159Q723.29443,896.0737,725.96594,901.32367Q727.8876,903.7037,731.8735,917.95154Q734.4068,929.62317,733.1928,942.85803"/> </g> <g style="fill:rgb(248,196,166); fill-opacity:0.99607843; stroke-linejoin: miter"> <path d="M652.5528,985.2526L665.18134,986.6402L677.8097,988.0278Q676.7348,997.8113,675.65967,1007.595Q663.03125,1006.20734,650.40295,1004.8195Q651.47754,995.0363,652.5528,985.2526"/> </g> <g style="fill:rgb(0,0,0); fill-opacity:0.99607843; stroke-linejoin: miter"> <path d="M657.4673,986.5191L657.46704,986.5204Q638.8926,978.33496,633.46576,973.8175Q627.6115,969.80115,626.71344,962.5113Q626.4647,955.2313,627.9012,950.01434Q630.123,940.1673,634.37115,929.30084Q641.7196,910.6298,648.244,907.4668Q651.4646,905.57227,656.9104,906.08777Q652.87775,911.50104,655.54755,910.6966Q657.55505,910.51324,670.9103,903.2503Q684.5879,913.03156,687.9144,913.0773Q691.2974,913.6573,688.7045,903.7708Q693.3026,906.21875,697.59235,909.4405Q704.8675,914.62274,709.1147,926.8984Q715.01294,946.6921,713.3419,957.40564Q712.5169,963.122,708.32806,967.8459Q705.2254,971.88416,693.10266,978.2229Q684.63214,982.39386,675.0713,986.4107L657.4673,986.5191"/> </g> <g style="fill:rgb(248,196,166); fill-opacity:1.0; stroke-linejoin: miter"> <path d="M675.2249,991.6462L674.99457,991.7511Q663.9248,997.1655,652.59753,986.243Q647.7799,980.9041,645.47125,974.0652Q644.71576,971.84265,644.282,969.625Q643.1628,964.20795,642.46265,958.4526Q641.6111,948.4143,642.7436,944.4334Q644.0781,938.5653,646.39526,935.42126Q651.8024,927.1286,667.77185,919.047Q677.05133,914.472,684.87415,920.03204Q690.5046,924.48346,693.9432,931.2264Q697.6801,938.6801,697.7683,943.0843Q698.94183,955.69696,692.0413,971.71375Q685.4438,984.7343,675.2249,991.6462 Z"/> </g> <g style="fill:rgb(255,255,255); fill-opacity:1.0; stroke-linejoin: miter"> <path d="M666.4937,945.67816L666.0629,945.3299Q664.7657,944.25354,663.50696,943.46Q663.08856,943.2055,662.6791,943.0143L662.2718,942.8424Q661.9261,942.6974,661.3557,942.6031Q660.6229,942.47736,659.5718,942.79944Q659.0587,942.97144,658.55707,943.2294Q657.8054,943.62286,657.0632,944.0888Q658.2926,944.88385,659.08685,945.2225Q659.8964,945.5473,660.0923,945.58136Q660.4489,945.6808,660.8415,945.7473Q661.23474,945.81384,661.6641,945.84644Q661.86127,945.8786,663.01605,945.8855Q664.18634,945.87744,666.4937,945.67816 Z"/> </g> <g style="fill:rgb(0,0,0); fill-opacity:1.0; stroke-linejoin: miter"> <path d="M662.40753,945.9438L662.50134,945.88983Q663.13257,945.5578,663.3383,945.0948Q663.5371,944.6996,663.48016,943.4511Q662.53625,942.7684,661.9733,942.6421Q661.47485,942.48,660.15137,942.5802Q659.2374,943.23865,659.09686,943.71454Q659.01544,943.87946,659.0087,944.34973Q659.0134,944.6901,659.1387,945.35614L660.91113,945.7972L662.40753,945.9438 Z"/> </g> <g style="fill:rgb(0,0,0); fill-opacity:1.0; stroke-linejoin: miter"> <path d="M671.5109,958.347L671.5109,958.34753L671.5109,958.347L671.5109,958.34753 Z"/> </g> <g style="fill:rgb(0,0,0); fill-opacity:1.0; stroke-linejoin: miter"> <path d="M667.5689,939.9442L667.2011,939.6117Q666.1114,938.59424,664.902,937.739Q664.4944,937.46027,664.05994,937.2176L663.6176,936.9861Q663.2331,936.7867,662.54926,936.54803Q661.79614,936.31354,661.385,936.2405L660.8741,936.1461Q660.3563,936.0611,659.8157,936.0072Q658.4706,935.8645,655.875,935.8429Q660.02435,936.63995,662.10925,937.388Q664.07794,938.04565,667.5689,939.9442 Z"/> </g> <g style="fill:rgb(0,0,0); fill-opacity:1.0; stroke-linejoin: miter"> <path d="M658.8032,947.8561L658.8032,947.8568L658.8032,947.8561L658.8032,947.8568 Z"/> </g> <g style="fill:rgb(255,255,255); fill-opacity:1.0; stroke-linejoin: miter"> <path d="M680.7884,947.48236L681.28156,947.2293Q682.77075,946.44037,684.165,945.91986Q684.62634,945.7562,685.0666,945.6527L685.49994,945.5677Q685.8681,945.49634,686.4457,945.5201Q687.18896,945.5467,688.15216,946.07605Q688.61957,946.3492,689.058,946.7044Q689.71375,947.2431,690.3452,947.8502Q688.9795,948.37787,688.13275,948.54816Q687.274,948.70026,687.0752,948.6937Q686.7057,948.71844,686.308,948.70355Q685.9094,948.6882,685.4823,948.63226Q685.2828,948.624,684.15045,948.3947Q683.00653,948.1487,680.7884,947.48236 Z"/> </g> <g style="fill:rgb(0,0,0); fill-opacity:1.0; stroke-linejoin: miter"> <path d="M684.735,948.57605L684.654,948.50385Q684.1033,948.0505,683.99664,947.5555Q683.88257,947.1282,684.19275,945.91724Q685.2564,945.44104,685.8332,945.43243Q686.3545,945.3751,687.62933,945.7437Q688.39,946.5752,688.4308,947.0693Q688.4769,947.24774,688.38745,947.70917Q688.31366,948.04047,688.05505,948.6681L686.2295,948.7384L684.735,948.57605 Z"/> </g> <g style="fill:rgb(0,0,0); fill-opacity:1.0; stroke-linejoin: miter"> <path d="M680.9054,941.64966L681.3336,941.3985Q682.6075,940.62573,683.96606,940.03516Q684.422,939.8452,684.8967,939.6961L685.3772,939.55945Q685.7942,939.44354,686.5127,939.3492Q687.2974,939.27277,687.7149,939.2852L688.2342,939.2979Q688.7588,939.31964,689.2988,939.37695Q690.6449,939.5117,693.19037,940.0197Q688.9654,939.95355,686.77185,940.2613Q684.71,940.5026,680.9054,941.64966 Z"/> </g> <g style="fill:rgb(0,0,0); fill-opacity:1.0; stroke-linejoin: miter"> <path d="M687.8733,951.1833L687.8733,951.1842L687.8733,951.1833L687.8733,951.1842 Z"/> </g> <g style="fill:rgb(255,61,0); fill-opacity:1.0; stroke-linejoin: miter"> <path d="M682.4892,968.60614L681.98285,968.3775Q679.6668,967.1888,676.67255,966.45575Q675.6557,966.39923,675.06445,966.4931Q673.7355,966.8063,673.30774,967.0337Q672.03876,966.06537,669.2859,965.9609Q667.0135,965.8683,659.14124,966.4197Q662.32056,969.4626,666.1887,973.6297Q667.10834,974.4475,668.352,975.0865Q670.7441,976.0203,672.39734,975.97235Q673.5208,975.9727,674.4058,975.74884Q675.33105,975.508,675.8882,975.23315Q677.34735,974.54395,678.83075,973.0943Q681.0787,970.7148,682.4892,968.60614 Z"/> </g> <g style="fill:rgb(255,255,255); fill-opacity:1.0; stroke-linejoin: miter"> <path d="M680.63574,968.8054L680.0171,968.8289Q675.30115,969.0446,672.58154,968.8105Q671.59875,968.72174,670.6638,968.58887Q667.3867,968.0841,665.6207,967.8576Q664.53125,967.7105,660.95496,967.28326Q665.7934,971.33594,667.7868,972.21747Q669.19385,972.9133,670.2849,973.12537Q671.4468,973.368,672.5362,973.3198Q674.8712,973.17596,676.6216,972.19965Q678.6242,971.0942,680.63574,968.8054 Z"/> </g> <g style="fill:rgb(255,72,0); fill-opacity:0.16078432; stroke-linejoin: miter"> <path d="M680.7838,961.358L680.7838,961.3593L675.8607,964.19806L669.469,959.57355L675.9384,962.9771L680.7838,961.358 Z"/> </g> <g style="fill:rgb(255,72,0); fill-opacity:1.0; stroke-linejoin: miter"> <path d="M670.2651,965.7973L670.2651,965.7973L670.2651,965.7973L670.2651,965.7973 Z"/> </g> <g style="fill:rgb(0,0,0); fill-opacity:0.99607843; stroke-linejoin: miter"> <path d="M658.0713,914.5122L657.24115,914.4765Q652.8136,914.3943,649.8912,913.36285Q646.5806,911.8919,645.71655,909.671Q644.1956,905.67456,644.65216,902.2316Q645.30414,897.36615,645.85394,896.32263Q646.5175,894.3144,647.55524,892.3954Q650.7027,886.467,657.28424,883.302Q666.4311,879.2344,675.7787,879.6236Q687.3067,879.8075,692.93445,887.9181Q694.83124,890.55695,696.50214,894.5319Q698.352,899.4342,698.4898,900.4661Q699.5454,904.5381,699.4994,907.945Q699.112,911.82935,698.596,912.13104Q696.8374,915.02814,692.66583,915.0153Q689.1551,915.13617,682.06665,913.59875L658.0713,914.5122"/> </g> <g style="fill:rgb(255,0,0); fill-opacity:0.08627451; stroke-linejoin: miter"> <path d="M655.53174,988.80786L656.3161,989.2726Q661.3562,992.4205,665.00757,993.12555Q668.497,993.7297,673.9165,992.22864L662.95953,1011.23004L655.53174,988.80786"/> </g> <g style="fill:rgb(0,0,0); fill-opacity:1.0; stroke-linejoin: miter"> <path d="M649.404,992.06274L649.40436,992.0636L649.404,992.06274L649.40436,992.0636L649.404,992.06274 Z"/> </g> <g style="fill:rgb(0,0,0); fill-opacity:1.0; stroke-linejoin: miter"> <path d="M649.404,992.06274L649.40436,992.0636L649.404,992.06274L649.40436,992.0636L649.404,992.06274 Z"/> </g> <g style="fill:rgb(83,93,102); fill-opacity:1.0; stroke-linejoin: miter"> <path d="M592.4901,994.8701L592.48987,994.8699C562.37836,954.303,570.85443,897.00604,611.4214,866.8945L611.42096,866.8941C651.9885,836.783,709.28534,845.258,739.3967,885.82446L739.3965,885.8239C769.50916,926.39124,761.03345,983.68805,720.466,1013.79974L720.466,1013.79926C679.8988,1043.9119,622.6021,1035.4364,592.4901,994.8701L592.48987,994.8699 M614.6346,978.43286L614.63403,978.432C635.66846,1006.7695,675.69147,1012.6898,704.02893,991.6562L704.0286,991.65533C732.36633,970.6214,738.2868,930.5986,717.2529,902.26135L717.252,902.26135C696.2189,873.9247,656.1956,868.0049,627.8582,889.0379L627.8579,889.03754C599.52136,910.07275,593.6005,950.0949,614.6346,978.43286 Z"/> </g> <g style="fill:rgb(237,115,210); fill-opacity:1.0; stroke-linejoin: miter"> <path d="M272.94116,947.6654L271.245,957.0796Q263.67023,985.2471,241.01521,1000.04Q218.21878,1014.8025,190.39293,1008.2953Q164.00337,1000.64594,150.41243,976.77155Q146.0649,969.0593,143.68799,960.2834L141.87221,951.333Q140.58362,942.1635,141.67688,932.4827Q145.8159,902.86597,166.61621,885.2873Q187.41672,867.7087,215.39296,870.18536Q243.19585,874.161,259.43414,896.0238Q275.6725,917.88605,272.94116,947.6654"/> </g> <g style="fill:rgb(0,0,0); fill-opacity:1.0; stroke-linejoin: miter"> <path d="M238.82396,959.5396L240.08789,957.0488Q244.10144,949.6731,246.11757,941.4324Q247.23828,934.3231,246.885,932.6514Q246.77596,929.56604,246.05602,926.2171Q243.65741,917.6051,242.44066,915.77014Q240.7775,912.22656,238.57237,908.8599Q234.13083,902.00934,227.89307,897.2621Q217.01096,888.8919,202.69916,892.9194Q188.53246,897.2652,180.94377,910.6431Q175.64027,921.1084,177.37845,936.06274Q178.47926,948.13495,185.60149,972.3746L238.82396,959.5396"/> </g> <g style="fill:rgb(255,180,151); fill-opacity:1.0; stroke-linejoin: miter"> <path d="M225.7798,1004.08856L225.7798,1004.0896L223.79337,991.6599L233.98004,978.68225C235.4104,976.5631,236.36603,974.9979,236.95374,974.04913C238.8892,970.927,240.26822,967.2076,240.94101,962.8185C241.41476,959.72797,241.43152,955.4208,241.75386,949.92914C241.98737,945.95013,242.62445,942.1503,242.79134,938.4591C242.9802,934.2845,242.80797,931.4918,242.56163,930.0641C241.63239,924.6788,239.08083,919.9443,234.77733,915.8839L220.43997,931.7397C218.59471,933.68756,217.27873,934.8419,216.58069,935.33606C215.62572,936.01294,214.5891,936.5367,213.37505,936.7808C213.27391,936.99005,211.09784,936.6373,206.78815,936.2849C205.61734,936.1884,204.70276,936.6419,204.0266,937.0463C202.9137,937.71265,201.74025,938.64453,200.63374,939.968C196.02829,945.47644,193.79369,948.1427,193.81926,947.875C192.15065,949.4071,190.51355,950.4439,188.90813,950.98737C187.30244,951.52966,185.70743,951.9083,184.12283,952.12115C184.28714,944.39594,183.93402,939.3052,182.87755,936.9294C181.45758,933.73706,179.38193,933.40875,177.14713,936.1265C174.73422,939.0609,174.3654,945.03314,175.88367,953.7598C177.35736,962.23096,180.18562,964.1378,184.20392,959.5103C185.2662,967.1048,185.76239,974.5413,185.77478,981.82166C185.78276,986.59357,185.20412,994.7966,184.20975,998.2443C180.58716,1010.80225,187.38568,1003.23737,192.8827,1011.2378L213.22075,1027.2319L225.7798,1004.08856L225.7798,1004.0896 Z"/> </g> <g style="fill:rgb(255,255,255); fill-opacity:1.0; stroke-linejoin: miter"> <path d="M214.42456,947.52057L214.06181,947.17035Q212.98152,946.0968,211.83655,945.2564Q211.45279,944.9849,211.05472,944.7656L210.65173,944.56213L210.23987,944.3922Q209.70059,944.2142,209.6322,944.2109Q208.7955,943.99817,207.47237,944.10693Q206.4115,944.1876,204.18202,944.7425Q205.85956,946.0629,206.84155,946.6318Q207.2335,946.863,207.6369,947.0564L208.04405,947.2364Q208.45433,947.4056,208.8808,947.522L209.18732,947.59753Q209.49635,947.6657,209.81277,947.70776Q210.44664,947.79016,211.1057,947.78906Q212.11539,947.8119,214.42456,947.52057"/> </g> <g style="fill:rgb(0,0,0); fill-opacity:1.0; stroke-linejoin: miter"> <path d="M207.93716,943.9876L207.84613,944.1197Q207.23013,944.9787,207.08981,945.52435Q206.94492,946.0124,207.21767,946.8905Q208.17752,947.4879,208.78549,947.6421Q209.29384,947.813,210.79681,947.896Q211.54669,947.41895,211.72675,947.1223Q211.92764,946.83936,211.97981,946.4591Q212.0361,946.2186,212.00287,945.369Q210.9554,944.5681,210.26259,944.3548Q209.49646,944.0923,207.93716,943.9876"/> </g> <g style="fill:rgb(0,0,0); fill-opacity:1.0; stroke-linejoin: miter"> <path d="M217.02722,942.2747L216.69075,941.9569Q215.70006,940.98334,214.54128,940.1752Q214.14911,939.91187,213.71971,939.6843L213.27797,939.4694Q212.82605,939.26373,212.323,939.1097Q211.81828,938.95544,211.26245,938.8526L210.6959,938.76Q210.1176,938.67834,209.5023,938.63336Q207.97296,938.5116,204.93335,938.5754L217.02722,942.2747"/> </g> <g style="fill:rgb(255,255,255); fill-opacity:1.0; stroke-linejoin: miter"> <path d="M230.25444,950.4874L230.7301,950.3218Q232.16096,949.79846,233.5523,949.515Q234.01476,949.4284,234.46832,949.39624L234.91908,949.38L235.36443,949.3979Q235.929,949.4612,235.99248,949.4872Q236.8412,949.645,237.99678,950.297Q238.92647,950.8141,240.71959,952.251Q238.6433,952.7488,237.5135,952.8538Q237.06071,952.90015,236.61375,952.90607L236.16862,952.90015Q235.72475,952.88135,235.28854,952.80994L234.97893,952.74976Q234.66975,952.6827,234.36493,952.587Q233.75479,952.39716,233.15695,952.1205Q232.23024,951.7176,230.25444,950.4874"/> </g> <g style="fill:rgb(0,0,0); fill-opacity:1.0; stroke-linejoin: miter"> <path d="M237.6251,949.9937L237.65233,950.1518Q237.85255,951.1901,237.75186,951.7441Q237.6789,952.24835,237.06346,952.93164Q235.94183,953.07214,235.32553,952.95795Q234.7921,952.90015,233.39221,952.34735Q232.91075,951.6009,232.87141,951.25555Q232.80742,950.914,232.91946,950.5465Q232.96884,950.3056,233.35469,949.54645Q234.64072,949.258,235.35947,949.35486Q236.16504,949.43567,237.6251,949.9937"/> </g> <g style="fill:rgb(0,0,0); fill-opacity:1.0; stroke-linejoin: miter"> <path d="M230.08601,944.6336L230.52428,944.4858Q231.83168,944.01624,233.2223,943.7673Q233.68893,943.6918,234.17375,943.6657L234.66501,943.6547Q235.16096,943.65765,235.68304,943.7278Q236.20543,943.79956,236.7534,943.9381L237.30685,944.09155Q237.866,944.2596,238.44357,944.4768Q239.88368,945.00574,242.61801,946.3356L230.08601,944.6336"/> </g> <g style="fill:rgb(140,80,53); fill-opacity:0.5529412; stroke-linejoin: miter"> <path d="M229.07538,967.15533L222.28107,969.8691L217.27975,964.0789L222.9677,967.6406L229.07538,967.15533"/> </g> <g style="fill:rgb(140,80,53); fill-opacity:0.34901962; stroke-linejoin: miter"> <path d="M223.79784,991.7559L223.22467,992.2139C220.62715,994.45074,218.10023,995.78864,215.63289,996.15283C212.57329,996.6045,209.75752,996.1214,207.17389,994.82074C204.82222,993.6369,202.42018,991.822,199.96967,989.351C197.03261,986.3906,193.10873,981.7699,188.21762,975.4675L220.51108,1019.0183L225.79448,1004.14545L223.79784,991.7559 Z"/> </g> <g style="fill:rgb(154,58,58); fill-opacity:1.0; stroke-linejoin: miter"> <path d="M180.28967,945.5577L180.28967,945.55835L180.29,945.5577L180.28967,945.55835"/> </g> <g style="fill:rgb(158,226,255); fill-opacity:0.99607843; stroke-linejoin: miter"> <path d="M217.93156,994.08075L217.93156,994.08075L217.93156,994.08075L217.93156,994.08167"/> </g> <g style="fill:rgb(158,226,255); fill-opacity:0.99607843; stroke-linejoin: miter"> <path d="M218.67947,970.2705L218.67947,970.27136L218.67947,970.2705L218.67947,970.27136"/> </g> <g style="fill:rgb(255,0,0); fill-opacity:0.99607843; stroke-linejoin: miter"> <path d="M210.72905,972.83057L209.6575,972.9135Q211.759,974.08185,213.88138,975.0807Q215.65715,975.8557,216.01942,975.9526Q216.7367,976.207,217.46162,976.39777Q219.12354,976.8235,220.75041,976.9017Q221.35593,976.94415,222.51929,976.93384Q223.03232,976.925,223.54756,976.9004Q223.80418,976.8952,225.09613,976.8005Q226.13077,976.7155,227.16736,976.61536L222.45097,974.3551L210.72905,972.83057"/> </g> <g style="fill:rgb(255,0,0); fill-opacity:0.99607843; stroke-linejoin: miter"> <path d="M213.1991,977.2742L213.1991,977.27466L213.1991,977.2742L213.1991,977.2742"/> </g> <g style="fill:rgb(236,122,94); fill-opacity:0.99607843; stroke-linejoin: miter"> <path d="M199.43715,929.7121L199.43715,929.7125L199.43715,929.7121L199.43715,929.7121"/> </g> <g style="fill:rgb(255,255,255); fill-opacity:0.99607843; stroke-linejoin: miter"> <path d="M226.29457,975.90405L212.86598,973.23987L209.54074,973.023L214.18898,977.56744L221.73546,980.10254L227.34857,976.44745L226.29457,975.90405"/> </g> <g style="fill:rgb(255,88,171); fill-opacity:1.0; stroke-linejoin: miter"> <path d="M227.4012,976.68494L227.4012,976.6857Q224.66533,973.98334,223.24869,973.3189Q222.5553,972.9816,221.78677,972.86896Q220.99948,972.75836,219.90857,972.8226Q218.7125,972.20325,217.66183,971.9615Q216.45703,971.67303,214.68582,971.9033Q212.95305,972.1212,209.70398,972.9076L219.07607,975.7774L227.4012,976.68494"/> </g> <g style="fill:rgb(255,88,171); fill-opacity:1.0; stroke-linejoin: miter"> <path d="M227.07278,976.74695L226.72621,977.12555Q224.12695,980.09534,221.96751,981.1276Q219.7721,982.1685,217.03912,981.56494Q214.35141,980.93567,212.64296,978.92694Q211.30933,977.54614,209.69601,972.88586Q212.74382,975.32196,214.4802,976.3227Q215.17343,976.7312,215.87749,977.0568L216.58461,977.35583Q217.29445,977.6319,218.0186,977.7946Q218.74255,977.954,219.48083,977.99994L220.2221,978.0219Q220.96614,978.0178,221.72067,977.93097Q223.60414,977.7361,227.07278,976.74695"/> </g> <g style="fill:rgb(0,0,0); fill-opacity:0.99607843; stroke-linejoin: miter"> <path d="M179.29822,897.9612L179.25635,900.13525Q179.7239,906.7564,184.40028,911.10785Q189.11148,915.4583,196.01974,915.3122Q202.64124,914.84485,206.9922,910.1683Q208.38742,908.65564,209.36562,906.8144L210.21875,904.9082Q210.95726,902.9276,211.15471,900.72266Q211.57057,893.93945,207.46558,889.0553Q203.36073,884.1715,196.60707,883.41376Q189.82375,882.998,184.93979,887.1024Q180.05588,891.2077,179.29822,897.9612"/> </g> <g style="fill:rgb(0,0,0); fill-opacity:1.0; stroke-linejoin: miter"> <path d="M159.50543,907.7958L159.5053,907.79614L159.50543,907.7958L159.5053,907.79614L159.50543,907.7958 Z"/> </g> <g style="fill:rgb(0,0,0); fill-opacity:1.0; stroke-linejoin: miter"> <path d="M159.50543,907.7958L159.5053,907.79614L159.50543,907.7958L159.5053,907.79614L159.50543,907.7958 Z"/> </g> <g style="fill:rgb(244,67,54); fill-opacity:1.0; stroke-linejoin: miter"> <path d="M210.27509,1009.14185L210.275,1009.1426L210.275,1009.14294L210.27509,1009.14185"/> </g> <g style="fill:rgb(83,93,102); fill-opacity:1.0; stroke-linejoin: miter"> <path d="M290.56943,971.69403L290.56943,971.6935C307.6676,924.1537,282.98907,871.7541,235.44942,854.65625L235.44975,854.6561C187.90947,837.5587,135.51003,862.23645,118.41191,909.7763L118.41213,909.77576C101.313835,957.3158,125.991455,1009.71497,173.53122,1026.8126L173.53122,1026.8124C221.07123,1043.9117,273.47064,1019.23364,290.56943,971.69403L290.56943,971.6935 M264.61847,962.36053L264.61877,962.3602C252.67494,995.5681,216.07263,1012.807,182.86462,1000.86316L182.86462,1000.8621C149.6567,988.9187,132.41843,952.3165,144.36206,919.10876L144.3624,919.10834C156.30568,885.9014,192.90823,868.6633,226.11609,880.6065L226.11642,880.6064C259.3238,892.55,276.56213,929.1523,264.61847,962.36053 Z"/> </g> <g style="fill:rgb(165,179,188); fill-opacity:0.15686275; stroke-linejoin: miter"> <path d="M122.90817,1154.8282L392.35742,1156.1893L661.81024,1157.5509Q661.53503,1212.1244,661.2595,1266.6981Q391.80627,1265.3396,122.356766,1263.98Q122.632484,1209.404,122.90817,1154.8282"/> </g> <g> <g> <g style="fill:rgb(0,0,0); fill-opacity:1.0; stroke-linejoin: miter"> <path d="M417.86572,1178.4962L465.01077,1178.7426C473.6899,1178.7781,480.6901,1185.8497,480.64633,1194.5292L480.48764,1225.9595C480.44394,1234.639,473.3727,1241.6406,464.69357,1241.5969L417.54828,1241.3663C408.86902,1241.315,401.8684,1234.2423,401.91235,1225.5627L402.07098,1194.1328C402.1148,1185.4529,409.18634,1178.4524,417.86572,1178.4962 Z M480.60672,1202.3862L499.53632,1188.3379C503.02094,1185.7535,507.94238,1186.4827,510.529,1189.9658L510.37024,1221.3971C510.34833,1225.7358,506.8131,1229.2347,502.47302,1229.2129C500.773,1229.2045,499.12122,1228.6445,497.76648,1227.6188L478.97934,1213.3804 Z"/> </g> <g style="fill:rgb(0,0,0); fill-opacity:1.0; stroke-linejoin: miter"> <path d="M417.86572,1178.4962L417.8656,1178.5015L465.01077,1178.7426L465.01077,1178.748C473.68503,1178.7781,480.6824,1185.8418,480.64645,1194.5155L480.64645,1194.521C480.64645,1194.5212,480.64645,1194.5223,480.64633,1194.5292L480.64633,1194.534L480.48764,1225.9595L480.48764,1225.9637C480.44394,1234.639,473.3727,1241.6406,464.69357,1241.5969L464.6935,1241.6022L417.54828,1241.3663L417.54828,1241.3716C408.86902,1241.315,401.8684,1234.2423,401.91235,1225.5627L401.91223,1225.567L402.07098,1194.1328L402.07098,1194.1376C402.1148,1185.4529,409.18634,1178.4524,417.86572,1178.4962L417.8656,1178.5015 M417.86572,1178.4962L417.8656,1178.5015C409.18634,1178.4524,402.1148,1185.4529,402.07098,1194.1328L402.07098,1194.1376L401.91235,1225.5627L401.91223,1225.567C401.8684,1234.2423,408.86902,1241.315,417.54828,1241.3663L417.54828,1241.3716L464.69357,1241.5969L464.6935,1241.6022C473.3727,1241.6406,480.44394,1234.639,480.48764,1225.9595L480.48764,1225.9637L480.64633,1194.5292L480.64633,1194.534C480.64645,1194.5223,480.64645,1194.5212,480.64645,1194.5155L480.64645,1194.521C480.6824,1185.8418,473.68503,1178.7781,465.01077,1178.7426L465.01077,1178.748L417.86572,1178.4962 Z M480.60672,1202.3862L480.60672,1202.3922L499.53632,1188.3379L499.53632,1188.3431C503.02094,1185.7535,507.94238,1186.4827,510.529,1189.9658L510.52887,1189.9713L510.37024,1221.3971L510.37024,1221.4019C510.34833,1225.7358,506.8131,1229.2347,502.47302,1229.2129L502.47302,1229.2183C500.773,1229.2045,499.12122,1228.6445,497.76648,1227.6188L497.76648,1227.624L478.97934,1213.3804L478.97934,1213.3856L480.60672,1202.3862L480.60672,1202.3922 M480.60672,1202.3862L480.60672,1202.3922L478.97934,1213.3804L478.97934,1213.3856L497.76648,1227.6188L497.76648,1227.624C499.12122,1228.6445,500.773,1229.2045,502.47302,1229.2129L502.47302,1229.2183C506.8131,1229.2347,510.34833,1225.7358,510.37024,1221.3971L510.37024,1221.4019L510.529,1189.9658L510.52887,1189.9713C507.94238,1186.4827,503.02094,1185.7535,499.53632,1188.3379L499.53632,1188.3431L480.60672,1202.3862 Z"/> </g> </g> <g> <g style="fill:rgb(0,0,0); fill-opacity:1.0; stroke-linejoin: miter"> <path d="M583.39856,1180.076C588.4703,1180.1018,592.57745,1184.2506,592.55176,1189.3223L592.4589,1207.7216C592.43335,1212.7927,588.2844,1216.8998,583.2128,1216.8743C578.1411,1216.8489,574.03394,1212.7001,574.0594,1207.6287L574.1521,1189.2292C574.1779,1184.1581,578.32684,1180.0507,583.39856,1180.076 Z M583.4294,1173.9443C574.99664,1173.9017,568.0618,1180.7664,568.01935,1189.198L567.9266,1207.5974C567.8838,1216.03,574.7491,1222.9635,583.182,1223.006C591.615,1223.0483,598.54956,1216.1853,598.592,1207.7524L598.68494,1189.3529C598.72754,1180.9216,591.8626,1173.987,583.4294,1173.9443 Z"/> </g> <g style="fill:rgb(0,0,0); fill-opacity:1.0; stroke-linejoin: miter"> <path d="M610.8887,1201.6803L610.8576,1207.8142C610.78625,1221.9512,599.93317,1233.6418,586.1877,1235.1042L586.1559,1241.4211L598.42175,1241.4855C600.10785,1241.4916,601.4809,1242.8785,601.4723,1244.5654C601.4638,1246.2513,600.077,1247.6243,598.3909,1247.616L567.72534,1247.464C566.0391,1247.4526,564.6661,1246.0654,564.67456,1244.3794C564.68317,1242.693,566.06995,1241.3195,567.75616,1241.328L580.02234,1241.3925L580.05414,1235.0731C566.32385,1233.4722,555.5893,1221.6729,555.6606,1207.5358L555.69165,1201.4019C555.7,1199.7155,557.0869,1198.343,558.7736,1198.3516C560.4597,1198.3605,561.83344,1199.7463,561.8251,1201.4327L561.794,1207.5667C561.7342,1219.4027,571.3143,1229.0797,583.1508,1229.1396C594.9881,1229.1993,604.66534,1219.6194,604.72504,1207.7833L604.7561,1201.6494C604.76447,1199.963,606.1511,1198.5908,607.83795,1198.5994C609.5247,1198.6078,610.89703,1199.9939,610.8887,1201.6803 Z"/> </g> <g style="fill:rgb(0,0,0); fill-opacity:1.0; stroke-linejoin: miter"> <path d="M583.3989,1180.0171C578.2958,1179.9913,574.1196,1184.123,574.09375,1189.229L574.001,1207.6285C573.9752,1212.7318,578.1093,1216.9071,583.21234,1216.9326C588.31665,1216.9583,592.4915,1212.8253,592.5174,1207.722L592.61017,1189.3224C592.6359,1184.2164,588.5021,1180.0427,583.3989,1180.0171 Z"/> </g> </g> <g> <g style="fill:rgb(0,0,0); fill-opacity:1.0; stroke-linejoin: miter"> <path d="M339.97324,1235.7657L288.53445,1235.5114C279.40387,1235.4601,271.96405,1227.9456,272.0102,1218.8147L272.10706,1199.6254C272.15326,1190.494,279.66858,1183.0549,288.79916,1183.1007L340.23776,1183.3658C349.36813,1183.4064,356.8082,1190.9214,356.76205,1200.0525L356.66513,1219.2421C356.619,1228.3912,349.1035,1235.8118,339.97324,1235.7657 Z"/> </g> <g style="fill:rgb(255,255,255); fill-opacity:1.0; stroke-linejoin: miter"> <path d="M285.34326,1198.0947L305.21677,1198.2004L325.08957,1198.2953L325.0696,1202.2578Q305.19675,1202.1577,285.32324,1202.0574Q285.33325,1200.0756,285.34326,1198.0947"/> </g> <g style="fill:rgb(255,255,255); fill-opacity:1.0; stroke-linejoin: miter"> <path d="M285.4334,1207.32L325.17996,1207.5262L325.15994,1211.4816L285.4134,1211.2867L285.4334,1207.32"/> </g> <g style="fill:rgb(255,255,255); fill-opacity:1.0; stroke-linejoin: miter"> <path d="M285.72852,1216.546L305.60165,1216.6511L325.47452,1216.7465L325.45438,1220.7081Q305.5817,1220.6078,285.70837,1220.5077Q285.71838,1218.5265,285.72852,1216.546"/> </g> </g> <g style="fill:rgb(51,202,35); fill-opacity:1.0; stroke-linejoin: miter"> <path d="M226.90373,1209.5354L226.64052,1213.1738Q224.84485,1224.16,216.3681,1230.7097Q207.83348,1237.2537,196.31844,1235.9508Q185.33171,1234.1549,178.78214,1225.6777Q176.68353,1222.9375,175.3325,1219.713L174.19974,1216.3983Q173.26993,1212.9778,173.27823,1209.2644Q173.62318,1197.8727,181.22723,1190.3452Q188.831,1182.8174,200.22636,1182.5872Q211.61856,1182.9321,219.14642,1190.5367Q226.67401,1198.1405,226.90373,1209.5354"/> </g> </g> <g style="fill:rgb(0,0,0); fill-opacity:0.5019608; stroke-linejoin: miter"> <path d="M1198.2716,1486.0892L1192.3773,1487.2019Q1183.0647,1487.9491,1165.7805,1488.6299Q1115.5948,1490.2739,1095.9921,1490.5228Q1037.509,1491.6852,947.1399,1492.5812Q856.1454,1493.4764,750.7886,1493.8986Q698.1102,1494.1096,641.8411,1494.2025Q498.02686,1494.331,464.9553,1494.2147Q406.1137,1494.0966,352.50842,1493.8771Q322.43304,1493.8303,203.47365,1492.9906Q111.97149,1492.2477,41.414066,1491.1001Q-116.11611,1488.3232,-89.42261,1485.3289Q-77.68986,1483.838,-31.335371,1482.5781Q-8.158122,1481.9485,23.674532,1481.3765Q34.694122,1481.0479,137.62149,1479.8035Q308.67856,1477.9668,552.57275,1477.8887Q674.5199,1477.9277,778.2579,1478.4065Q903.94696,1479.1011,923.6221,1479.372Q968.66254,1479.7762,1009.15076,1480.2905Q1102.7976,1481.6267,1111.1406,1481.9633Q1138.6455,1482.5642,1157.4951,1483.2229Q1195.1943,1484.5404,1198.2716,1486.0892"/> </g> </g> </svg>