<?xml version="1.0" encoding="utf-8"?>
<svg xmlns="http://www.w3.org/2000/svg" xmlns:xlink="http://www.w3.org/1999/xlink" version= "1.1" width="1920px" height="1300px" viewBox="-600 63 1920 1300">
<g id="layer1">
<g style="fill:rgb(0,128,128); fill-opacity:1.0; stroke-linejoin: miter">
<path d="M-600.00104,61.66567C-600.3547,61.66567,-600.6938,61.80614,-600.94385,62.05619C-601.1939,62.30624,-601.33435,62.64538,-601.33435,62.999L-601.3334,1363.0C-601.3334,1363.7363,-600.73645,1364.3334,-600.00006,1364.3334L1320.001,1364.3344C1320.3545,1364.3344,1320.6936,1364.1937,1320.9436,1363.9437C1321.1936,1363.6937,1321.3342,1363.3546,1321.3342,1363.001L1321.3333,63.0C1321.3333,62.263622,1320.7363,61.666668,1320.0,61.666668L-600.00104,61.66567 Z"/>
</g>
<g style="fill:rgb(252,207,91); fill-opacity:0.22745098; stroke-linejoin: miter">
<path d="M7.8600464,531.26855L7.8600464,531.26904L1319.5203,228.15656Q1318.9767,730.4846,1318.433,1232.8126Q643.98804,963.31915,-30.45691,693.82556L7.8600464,531.26855"/>
</g>
<g style="fill:rgb(252,207,91); fill-opacity:1.0; stroke-linejoin: miter">
<path d="M-121.65054,711.08777C-129.55351,640.4233,-221.27342,605.0197,-172.26263,509.87335C-139.20854,445.74762,-4.4163904,425.18665,25.456837,537.7102C48.441315,624.2556,-19.364176,636.4168,-29.335575,712.54736L-121.65054,711.08777 Z"/>
</g>
<g style="fill:rgb(35,31,32); fill-opacity:1.0; stroke-linejoin: miter">
<path d="M-29.840832,754.91125C-29.840832,754.91125,-15.785948,743.2194,-29.483921,735.4864C-29.483921,735.4864,-13.376298,721.91156,-29.33564,712.54736L-50.968296,712.2105C-48.378433,687.5822,-44.58532,663.01526,-42.04754,638.43866C-40.48535,623.2057,-39.203835,607.9253,-37.77325,592.68024C-36.336826,577.62994,-33.686855,562.26306,-34.748455,547.1396C-35.30415,539.1785,-35.387283,528.6671,-42.92017,523.9777C-48.036804,520.79956,-52.628304,526.7151,-54.810814,530.5124C-57.837666,535.7745,-59.636566,541.8654,-61.20249,547.8765C-63.340446,538.4097,-67.278275,531.367,-74.460556,533.021C-83.213005,535.0195,-87.15827,553.1923,-88.95901,560.01575C-89.11337,560.59204,-89.25798,561.1884,-89.427055,561.78204C-90.16167,558.137,-91.048744,554.51086,-92.182976,550.92676C-94.750084,542.8501,-97.030495,531.94196,-105.628204,528.4976C-118.827705,523.2045,-122.9241,555.01904,-123.455246,561.5639C-125.901825,592.1262,-119.84226,624.2073,-114.114456,654.0644C-111.224304,669.1188,-108.4731,684.24176,-105.67382,699.3113C-105.094055,702.4622,-104.728325,706.9063,-104.00171,711.3637L-121.65047,711.08777C-121.65047,711.08777,-138.92969,718.2048,-123.017,734.2749C-123.017,734.2749,-139.33131,742.30023,-124.02693,754.5574C-124.02693,754.5574,-138.73581,764.1048,-122.42006,772.9947L-104.19981,774.0422L-90.011086,790.8259L-66.08423,792.1286L-50.818455,776.1614L-32.940742,775.4406C-32.94067,775.4406,-12.719905,766.21234,-29.840832,754.91125 Z M-96.3025,711.4941C-97.41645,707.02606,-97.85299,702.1061,-98.65431,697.79565C-100.69307,686.7691,-103.3177,675.88116,-105.215416,664.82935C-109.41962,640.2976,-114.28082,615.9581,-115.61422,591.02985C-116.536804,573.7495,-117.801704,556.5464,-111.190094,540.1847C-107.61907,531.34,-102.64598,542.9294,-101.34367,546.4249C-99.266846,552.04596,-97.533745,557.61176,-96.24074,563.4478C-94.74357,570.1969,-93.98878,577.08875,-93.13672,583.9654C-93.17438,587.74426,-92.73199,591.4134,-91.582726,594.8015C-91.56829,594.83984,-91.56496,594.86725,-91.56397,594.9005C-91.555244,594.9005,-91.555244,594.8977,-91.54232,594.8977C-91.45105,595.19556,-91.35803,595.49097,-91.24499,595.778C-89.71882,599.7221,-83.8525,597.2227,-84.53082,593.3764C-85.26964,589.27734,-85.84377,585.15326,-86.40911,581.03217C-85.96198,568.7791,-80.568695,554.0502,-76.14738,545.43024C-70.76405,534.9349,-67.76435,558.3122,-67.3514,561.50885C-67.002304,564.1312,-66.74566,566.8596,-66.54134,569.6091C-67.50954,575.3831,-67.715805,581.1957,-65.91658,585.96313C-64.592384,589.446,-59.309975,587.85944,-59.129486,584.52606C-59.005684,582.35455,-58.845863,578.4828,-58.86535,573.7993C-58.63742,572.8749,-58.441982,571.9326,-58.37683,570.96326C-58.002014,564.79987,-56.734863,559.0649,-55.141514,553.138C-53.734882,547.92346,-52.223206,542.747,-50.284637,537.7117C-47.558064,530.6574,-43.725037,533.2385,-42.957947,539.9657C-42.261135,546.144,-41.5035,552.0363,-41.69232,558.2788C-42.024433,569.5449,-43.757584,581.0689,-44.940693,592.286C-47.417793,615.67584,-49.58553,639.1281,-51.574905,662.57056C-52.96579,679.1485,-55.73136,695.57666,-57.839256,712.09766L-96.3025,711.4941 Z"/>
</g>
<g style="fill:rgb(253,226,157); fill-opacity:1.0; stroke-linejoin: miter">
<path d="M-168.57727,561.2333C-165.19826,553.7103,-163.8454,545.5417,-160.98926,537.81213C-158.84877,532.00775,-155.90482,526.8353,-152.66011,521.5938C-149.19911,516.0077,-145.69923,510.09326,-141.92947,504.75415C-140.63345,502.92084,-141.96683,500.39752,-144.33517,501.03528C-151.86682,503.08527,-156.46588,507.34393,-160.69507,513.87384C-164.14758,519.21313,-167.24794,524.6764,-169.5978,530.58844C-173.26071,539.837,-175.49963,549.7966,-175.48767,559.75354C-175.4885,563.3407,-170.05302,564.5039,-168.57727,561.2333L-168.57727,561.23444 Z"/>
</g>
<g style="fill:rgb(253,226,157); fill-opacity:1.0; stroke-linejoin: miter">
<path d="M-125.03851,486.11115C-125.110214,486.06232,-125.16795,486.01276,-125.21834,485.9499C-124.94383,486.2779,-124.66942,486.60394,-124.38954,486.9336C-125.60445,485.32672,-127.38699,483.59357,-129.64227,483.99982C-128.80281,484.17932,-127.948944,484.36633,-127.10698,484.54413C-127.15181,484.52625,-127.19745,484.50568,-127.25368,484.47955C-128.83437,483.75812,-130.58229,483.74316,-132.0733,484.7079C-133.4824,485.6253,-134.40262,487.31628,-134.25601,489.01593C-134.25102,489.06488,-134.25037,489.1136,-134.24805,489.16815C-134.06535,488.3205,-133.8871,487.46942,-133.70471,486.6239C-134.67944,488.3922,-134.40846,490.58368,-133.27563,492.1989C-132.07184,493.9215,-130.14743,494.78442,-128.08624,494.6955C-126.37671,494.6266,-124.77707,493.55115,-123.98802,492.04663C-123.03151,490.21075,-123.29787,487.44183,-125.03851,486.11115L-125.03851,486.11127 Z"/>
</g>
<g style="fill:rgb(253,226,157); fill-opacity:1.0; stroke-linejoin: miter">
<path d="M-7.4293356,630.75134C-3.603746,632.4103,-0.47117132,627.8016,1.2570027,625.11664C3.9379997,620.96515,6.195694,616.4688,8.582111,612.1442C10.640754,608.406,12.933876,604.43726,13.979404,600.2772C14.74872,597.2648,14.725626,591.3058,10.997336,590.08575C7.9871855,589.0936,5.413983,593.6171,4.340049,595.6808C2.1433685,599.8841,0.46525234,604.3193,-1.8018897,608.5127C-3.9668813,612.5263,-6.0060377,616.60297,-7.864314,620.7684C-9.179159,623.7025,-11.63519,628.93134,-7.4293356,630.75134L-7.4293356,630.7525 Z"/>
</g>
<g style="fill:rgb(252,207,91); fill-opacity:1.0; stroke-linejoin: miter">
<path d="M46.838497,482.0539C51.73002,479.72833,56.91119,475.5905,60.929276,471.99225C68.07213,465.60815,73.64258,458.0387,78.509705,449.91553C79.705284,447.9085,77.64271,444.6424,75.207794,445.67532C65.53749,449.78864,58.36067,454.575,51.674374,462.86005C48.01432,467.40936,39.781063,471.67365,40.756447,478.61505C41.192616,481.74664,43.85636,483.46027,46.838497,482.0539L46.838497,482.05493 Z"/>
</g>
<g style="fill:rgb(252,207,91); fill-opacity:1.0; stroke-linejoin: miter">
<path d="M-185.41876,480.59424C-185.80801,472.46075,-192.74553,466.5951,-197.54631,460.61896C-199.96094,457.60156,-202.68224,454.8308,-205.17189,451.88806C-207.93434,448.63556,-210.30989,445.1205,-213.62302,442.42078C-216.03448,440.45792,-220.89078,440.6975,-221.45224,444.5412C-222.7844,453.5268,-216.29291,459.88916,-210.5452,465.903C-204.5665,472.15497,-198.61815,479.68268,-190.88579,483.7791C-188.55153,485.00836,-185.27042,483.46606,-185.41876,480.59424L-185.41876,480.59436 Z"/>
</g>
<g style="fill:rgb(252,207,91); fill-opacity:1.0; stroke-linejoin: miter">
<path d="M-179.88445,401.05716C-181.06325,409.31763,-176.46576,417.1524,-172.79645,424.2648C-168.54324,432.51978,-163.17427,439.34204,-156.8083,446.0359C-155.17178,447.75415,-152.05847,446.42993,-152.15028,444.0724C-152.46399,435.35062,-155.28038,428.00214,-159.48918,420.45016C-163.34457,413.5414,-166.81818,404.6999,-172.35959,399.0144C-174.52423,396.79044,-179.39613,397.62915,-179.88445,401.05716L-179.88445,401.05728 Z"/>
</g>
<g style="fill:rgb(252,207,91); fill-opacity:1.0; stroke-linejoin: miter">
<path d="M-24.700153,434.8318C-22.245567,432.50183,-20.73239,428.60403,-19.318405,425.5865C-17.210623,421.08844,-15.33923,416.59872,-13.615646,411.9411C-11.749435,406.87106,-9.801408,401.83014,-8.199986,396.66486C-6.6377316,391.61935,-4.271521,386.02957,-4.774402,380.65332C-4.9125066,379.1981,-6.3264856,378.26855,-7.680435,379.0081C-12.0453205,381.40842,-15.471033,386.47018,-17.761139,390.7855C-20.831453,396.6167,-23.503002,402.4668,-25.57975,408.73288C-27.726044,415.20508,-34.401577,429.09674,-27.868023,434.85138C-26.922222,435.67346,-25.621943,435.70416,-24.700153,434.8318L-24.700153,434.83206 Z"/>
</g>
<g style="fill:rgb(252,207,91); fill-opacity:1.0; stroke-linejoin: miter">
<path d="M16.423191,451.28156C15.237202,452.4983,17.400879,450.2074,17.432632,450.1194C17.610691,449.68964,17.834942,449.29852,18.073097,448.89948C18.907497,447.5661,19.731663,446.24368,20.643286,444.86618C23.054565,441.19095,25.712402,437.6743,28.375223,434.17715C33.53758,427.4215,39.575397,420.92163,42.47506,413.18033C44.00274,409.11395,39.021935,406.73175,35.89447,408.19458C27.696583,412.02145,21.324295,421.34164,16.33712,429.06342C13.701786,433.15512,4.102841,448.3791,12.3645,451.83466C13.773361,452.41998,15.273416,452.46002,16.423191,451.28156L16.423191,451.28168 Z"/>
</g>
<g style="fill:rgb(252,207,91); fill-opacity:1.0; stroke-linejoin: miter">
<path d="M-66.162994,422.09436C-63.335396,419.5414,-62.7295,414.70493,-61.73207,411.1991C-60.102364,405.40768,-59.64692,399.23923,-59.019905,393.2696C-58.358448,387.00012,-58.57332,380.62653,-59.07527,374.35376C-59.486763,368.91696,-60.25766,362.73544,-63.551155,358.22903C-64.48935,356.93655,-66.13377,356.93655,-67.06718,358.25256C-70.32237,362.90533,-70.53973,368.945,-70.92406,374.43768C-71.36162,380.7144,-71.27435,387.05795,-71.478714,393.35168C-71.67836,399.45007,-72.159065,405.52576,-72.37859,411.6274C-72.52365,415.4333,-72.3069,420.11115,-68.93453,422.47226C-68.061554,423.0781,-66.881134,422.7419,-66.162994,422.09436L-66.162994,422.09448 Z"/>
</g>
<g style="fill:rgb(252,207,91); fill-opacity:1.0; stroke-linejoin: miter">
<path d="M-111.881386,428.9364C-111.89936,429.10068,-111.93013,429.2638,-111.94903,429.4332C-112.0746,430.46835,-110.75575,430.6376,-110.14507,430.16248C-104.23317,425.49857,-109.37365,412.9687,-110.90664,407.32407C-113.08764,399.32883,-115.31672,387.43243,-122.23731,382.0673C-123.736786,380.91168,-126.07689,381.1707,-126.62254,383.26593C-129.00208,392.43903,-126.42134,402.155,-123.37053,410.85138C-121.55944,415.98285,-117.97752,430.56583,-110.889656,430.47464C-110.895035,429.7725,-110.89031,429.07208,-110.89687,428.3799C-111.070145,428.40326,-111.23403,428.43057,-111.39103,428.45157C-111.68922,428.49197,-111.841484,428.64233,-111.881386,428.9364L-111.881386,428.93652 Z"/>
</g>
<g style="fill:rgb(255,177,133); fill-opacity:1.0; stroke-linejoin: miter">
<path d="M7.62222,827.75446L9.769436,829.7475Q27.255453,845.6396,27.437246,855.05194Q28.491934,865.49567,20.760674,882.165Q26.819414,908.27325,22.695393,923.09467Q19.613514,932.4621,12.122855,939.59467Q7.592097,944.7813,-10.987234,957.3985Q-19.686289,970.99457,-25.162907,975.3083Q-31.545982,980.48566,-35.891468,981.94867Q-59.13539,990.2719,-98.96202,975.9744Q-140.01044,962.5469,-225.53842,923.25L-223.30592,795.9242L-160.57411,796.0148L-133.16336,766.42474Q-85.74058,778.99243,-70.09888,778.071Q-62.01316,777.84515,-55.686516,776.059Q-27.534964,765.9862,-28.482103,767.0869Q-16.681177,765.00134,-11.773557,766.0572Q1.9874873,767.1595,6.8502793,780.77277Q11.0108,790.07184,7.62222,827.75446"/>
</g>
<g style="fill:rgb(255,255,255); fill-opacity:1.0; stroke-linejoin: miter">
<path d="M-273.19247,796.0704L-230.35683,796.0707L-187.52098,796.07135Q-187.52107,877.8078,-187.52115,959.54456Q-230.35696,959.5451,-273.1926,959.54596Q-273.19257,877.80774,-273.19247,796.0704"/>
</g>
<g>
<g style="fill:rgb(0,0,0); fill-opacity:1.0; stroke-linejoin: miter">
<path d="M831.5617,426.9549Q828.13715,426.62964,824.6197,426.46045L824.1165,426.43628Q799.465,425.2501,777.5175,430.74927Q755.59406,435.74567,738.4113,447.02072Q721.7314,458.3202,711.3011,475.97177Q701.3741,493.64722,700.2121,517.79565L777.77454,540.6894Q778.4037,527.6092,788.9254,518.5344Q799.44714,509.4599,814.5398,510.18628Q815.5143,510.2331,816.46985,510.3238Q828.3408,511.4513,837.2947,519.34955Q846.49,527.3556,845.86096,540.43585Q845.4249,549.492,837.44275,558.184Q829.96375,566.90076,808.7075,578.9887Q798.35535,584.5415,789.41565,592.1795Q781.00305,599.3383,773.9302,610.0918Q767.38495,620.3662,763.18567,634.2832Q758.9862,648.2004,758.09045,666.8146L757.36414,681.9076L826.79016,685.2482Q827.0565,679.7142,827.8019,674.70764Q829.2682,665.19714,832.55273,659.80835Q841.75903,646.6367,852.2565,638.06494Q862.75415,629.4936,873.17883,622.43164Q883.5797,615.87244,893.4772,609.2891Q903.3507,603.209,911.35706,594.01324Q918.86035,584.7934,924.042,571.4276Q929.1991,558.56537,930.19165,537.93854Q931.35376,513.79016,923.7455,493.75787Q916.61597,474.25323,902.20105,459.4404Q888.26495,445.1548,868.5285,436.13727Q851.6463,428.86255,831.5617,426.9549 Z M824.56335,731.5324L755.64014,728.21564L752.29944,797.6417L821.2223,800.9587L824.56335,731.5324 Z"/>
</g>
</g>
<g style="fill:rgb(255,177,133); fill-opacity:1.0; stroke-linejoin: miter">
<path d="M705.33124,831.0328L703.184,833.0258Q685.698,848.9179,685.5162,858.33026Q684.4615,868.774,692.19275,885.4433Q686.13403,911.5516,690.25806,926.373Q693.3399,935.7404,700.83057,942.873Q705.3613,948.05963,723.9407,960.6768Q732.6397,974.2729,738.11633,978.5866Q744.4994,983.764,748.8449,985.227Q772.0888,993.55023,811.91547,979.25275Q852.96387,965.8252,938.4918,926.5283L936.25934,799.2025L873.5275,799.2931L846.1168,769.70306Q798.69403,782.27075,783.0523,781.3493Q774.9666,781.1235,768.63995,779.33734Q740.4884,769.2645,741.43555,770.36523Q729.6346,768.27966,724.727,769.3355Q710.96594,770.4378,706.10315,784.0511Q701.9426,793.35016,705.33124,831.0328"/>
</g>
<g style="fill:rgb(255,255,255); fill-opacity:1.0; stroke-linejoin: miter">
<path d="M986.1459,799.3487L943.31024,799.349L900.4744,799.3497Q900.4745,881.0861,900.4746,962.8229Q943.3104,962.8234,986.146,962.8243Q986.146,881.08606,986.1459,799.3487"/>
</g>
<g style="fill:rgb(0,0,0); fill-opacity:1.0; stroke-linejoin: miter">
<path d="M1325.3867,782.8503L1142.1616,782.8503L958.93604,782.8513Q958.93616,891.68756,958.9362,1000.5242Q1142.1616,1000.52374,1325.3867,1000.5239Q1325.3867,891.6871,1325.3867,782.8503"/>
</g>
<g style="fill:rgb(0,0,0); fill-opacity:1.0; stroke-linejoin: miter">
<path d="M-604.50244,777.5879L-421.27734,777.5879L-238.05171,777.5889Q-238.05179,886.4252,-238.0519,995.2618Q-421.2774,995.26135,-604.5025,995.26154Q-604.5024,886.4247,-604.50244,777.5879"/>
</g>
</g>
</svg>