<?xml version="1.0" encoding="utf-8"?>
<svg xmlns="http://www.w3.org/2000/svg" xmlns:xlink="http://www.w3.org/1999/xlink" version= "1.1" width="1618px" height="1024px" viewBox="926 1339 1618 1024">
<g id="layer1">
<g style="fill:rgb(5,180,205); fill-opacity:0.99607843; stroke-linejoin: miter">
<path d="M1549.6876,1571.1715L1732.1254,1571.1726L1914.5975,1571.1732L1914.5784,1571.1732Q1914.5784,1689.4233,1914.5785,1807.674L1897.9562,1807.674Q1835.8494,1807.674,1773.7424,1807.6747C1773.7268,1807.6741,1773.711,1807.6737,1773.6953,1807.6737C1773.4082,1807.6737,1773.1307,1807.7836,1772.921,1807.982C1772.6962,1808.1948,1772.5688,1808.4908,1772.5688,1808.8004L1772.5688,1816.9299C1772.5688,1817.2395,1772.6962,1817.5355,1772.921,1817.7483C1773.1307,1817.9468,1773.4081,1818.0566,1773.6953,1818.0566C1773.711,1818.0566,1773.7268,1818.0563,1773.7424,1818.0557L1773.7603,1818.0557L1847.9413,1818.056L1847.9229,1818.056Q1847.9229,1861.4563,1847.923,1904.8575C1847.923,1905.1667,1848.0499,1905.4623,1848.2743,1905.675C1848.4841,1905.8741,1848.762,1905.9844,1849.0497,1905.9844C1849.0662,1905.9844,1849.0826,1905.984,1849.0992,1905.9833L1849.1177,1905.9833L2001.9567,1905.9836L2001.9567,1923.8694L2001.9366,1923.8694Q1982.4207,1923.8694,1962.9045,1923.8704C1962.2822,1923.8704,1961.7778,1924.3748,1961.7778,1924.9971C1961.7778,1925.0995,1961.7915,1925.1987,1961.8171,1925.2931L1961.7975,1925.2931Q1961.798,2094.0288,1961.7982,2262.7651C1961.7982,2263.0737,1961.9247,2263.3687,1962.1482,2263.5813C1962.3582,2263.781,1962.6364,2263.892,1962.9248,2263.892C1962.9335,2263.892,1962.9423,2263.8918,1962.951,2263.8916L1962.9706,2263.8916Q2028.4354,2265.417,2082.839,2267.9014L2082.8394,2267.9014Q2211.8735,2273.7925,2221.9626,2282.07L2221.9402,2282.07L2218.7368,2284.2446L2218.7146,2284.2446Q2187.366,2293.1606,2036.7053,2298.5325L2036.7057,2298.5325Q1908.5974,2303.0645,1742.2202,2303.0645Q1710.7646,2303.0645,1677.9354,2302.9023L1677.938,2302.9023Q1480.9246,2301.4785,1362.818,2294.5718L1362.8186,2294.5718Q1325.018,2292.3416,1300.5447,2289.7124L1300.5416,2289.7124L1279.9457,2287.0044L1279.9493,2287.0044Q1265.093,2284.5564,1263.8647,2282.502L1263.852,2282.502Q1271.0288,2273.9453,1403.4204,2267.9014Q1461.414,2265.2532,1531.9727,2263.6958L1532.0192,2263.6938L1532.0345,2263.6929C1532.6279,2263.6553,1533.0898,2263.1628,1533.0898,2262.5684Q1533.0897,2093.7827,1533.0896,1924.9977C1533.0896,1924.4033,1532.628,1923.9111,1532.0349,1923.8732L1532.0197,1923.8722L1531.9476,1923.87Q1503.2389,1923.8701,1474.5302,1923.8701L1474.53,1923.8701L1474.53,1905.9824L1622.8492,1905.9836C1623.1481,1905.9836,1623.4347,1905.865,1623.646,1905.6537C1623.8573,1905.4424,1623.976,1905.1558,1623.976,1904.8569L1623.976,1904.856Q1623.9758,1861.455,1623.9757,1818.0549L1623.992,1818.0549L1689.32,1818.0562C1689.6188,1818.0562,1689.9054,1817.9375,1690.1167,1817.7262C1690.328,1817.5149,1690.4467,1817.2283,1690.4467,1816.9294L1690.4467,1816.9285L1690.4467,1808.8014C1690.4467,1808.2045,1689.9811,1807.711,1689.3851,1807.6765L1689.3683,1807.6755L1689.3031,1807.6737Q1619.4875,1807.6737,1549.672,1807.6738Q1549.6721,1689.423,1549.6721,1571.1715 Z M925.999,1337.8723C925.7002,1337.8723,925.4136,1337.991,925.2023,1338.2023C924.99097,1338.4136,924.87225,1338.7002,924.87225,1338.999L924.8732,2363.0C924.8732,2363.6223,925.3777,2364.1267,926.0,2364.1267L2544.001,2364.1277C2544.2998,2364.1277,2544.5862,2364.009,2544.7976,2363.7976C2545.009,2363.5862,2545.1277,2363.2998,2545.1277,2363.001L2545.1267,1339.0C2545.1267,1338.3777,2544.6223,1337.8733,2544.0,1337.8733L925.999,1337.8723 Z"/>
</g>
<g style="fill:rgb(5,180,205); fill-opacity:1.0; stroke-linejoin: miter">
<path d="M1794.8494,1881.982Q1794.8572,1881.9822,1794.865,1881.9822L1794.847,1881.9832L1794.8314,1881.9832L1794.8314,1881.982 Z M1621.7225,1926.1233L1621.7225,1937.7622L1619.4989,1937.7615L1619.4985,1937.7615L1605.4939,1937.761C1605.1951,1937.761,1604.9084,1937.8796,1604.6971,1938.091C1604.4858,1938.3022,1604.3672,1938.5889,1604.3672,1938.8877L1604.3672,2009.4733L1595.2943,2009.4724C1594.9955,2009.4724,1594.7087,2009.5911,1594.4974,2009.8024C1594.2861,2010.0137,1594.1675,2010.3003,1594.1675,2010.5991L1594.1675,2046.6404C1594.1675,2047.2627,1594.6719,2047.7671,1595.2942,2047.7671L1604.3672,2047.7671L1604.3672,2077.0417C1604.3672,2077.3406,1604.4858,2077.627,1604.6971,2077.8384C1604.9084,2078.0498,1605.1951,2078.1685,1605.4939,2078.1685Q1614.7764,2078.1682,1624.059,2078.1675L1624.0752,2078.1675Q1624.1104,2078.2114,1624.1458,2078.2551Q1627.2249,2082.0667,1631.9468,2085.7952L1631.9849,2085.824L1637.0137,2089.4597L1637.0568,2089.4895Q1644.1107,2094.1062,1646.6727,2094.8694L1646.6562,2094.8694Q1675.6241,2109.1384,1722.7809,2111.5188L1722.7637,2111.5188Q1722.7639,2185.3901,1722.7638,2259.2627L1722.7466,2259.2627Q1632.1244,2259.5032,1555.4775,2260.9585Q1555.4774,2093.5413,1555.4773,1926.1244L1555.4618,1926.1244Q1588.584,1926.1233,1621.7063,1926.1233 Z M1939.4098,1926.1229Q1939.4103,2093.6257,1939.4105,2261.1282Q1853.291,2259.3967,1749.1534,2259.2312L1749.136,2259.2312Q1749.136,2185.3064,1749.1357,2111.3828L1749.1183,2111.3828Q1779.7682,2109.9146,1804.4138,2102.2566L1804.4327,2102.2507Q1822.2281,2096.3748,1832.2635,2089.7566L1832.2618,2089.7566Q1839.1271,2085.6155,1843.8632,2079.8396L1843.8447,2079.8396Q1853.508,2079.8381,1863.1708,2079.838C1863.7931,2079.838,1864.2975,2079.3335,1864.2975,2078.7112L1864.2975,2047.7661L1864.2788,2047.7661Q1865.8334,2047.7656,1867.3876,2047.7656C1868.0099,2047.7656,1868.5143,2047.2612,1868.5143,2046.6389L1868.5143,2010.5996C1868.5143,2010.3008,1868.3956,2010.014,1868.1842,2009.8027C1867.9729,2009.5916,1867.6865,2009.4729,1867.3878,2009.4729L1867.3873,2009.4729L1864.2975,2009.4736L1864.2972,1940.5591C1864.2972,1939.9369,1863.7928,1939.4324,1863.1705,1939.4324L1850.1764,1939.4319L1850.1764,1926.1239L1850.1578,1926.1239Q1894.774,1926.1229,1939.3904,1926.1229 Z M1548.5454,1568.9181C1548.2466,1568.9181,1547.96,1569.0367,1547.7487,1569.248C1547.5374,1569.4594,1547.4187,1569.746,1547.4187,1570.0448Q1547.4187,1689.423,1547.4186,1808.8005C1547.4186,1809.0994,1547.5372,1809.386,1547.7485,1809.5973C1547.9598,1809.8086,1548.2465,1809.9272,1548.5453,1809.9272Q1618.3608,1809.9271,1688.1764,1809.9271L1688.1932,1809.9271L1688.1932,1815.8027L1622.8652,1815.8015L1622.7976,1815.8035L1622.7814,1815.8044C1622.1864,1815.8402,1621.7223,1816.3331,1621.7223,1816.9292Q1621.7224,1860.3292,1621.7225,1903.7302L1473.4033,1903.729C1473.1045,1903.729,1472.8179,1903.8477,1472.6066,1904.059C1472.3953,1904.2703,1472.2766,1904.5569,1472.2766,1904.8557L1472.2766,1924.9968C1472.2766,1925.6191,1472.781,1926.1235,1473.4033,1926.1235Q1502.112,1926.1235,1530.8209,1926.1234L1530.8362,1926.1234Q1530.8363,2093.7952,1530.8364,2261.4673L1530.8212,2261.4673Q1460.8911,2263.0215,1403.3176,2265.6504Q1267.1064,2271.869,1261.6489,2281.744C1261.5452,2281.9316,1261.4972,2282.1453,1261.5106,2282.3596Q1261.5159,2282.4421,1261.5271,2282.5242Q1262.0522,2286.3418,1279.6158,2289.2334L1279.652,2289.2388L1300.2479,2291.9468L1300.3115,2291.9534L1300.3082,2291.9534Q1324.8304,2294.5876,1362.6858,2296.8213L1362.6864,2296.8213Q1480.853,2303.7314,1677.9216,2305.1558L1677.9242,2305.1558Q1710.7534,2305.3179,1742.2202,2305.3179Q1908.6355,2305.3179,2036.7853,2300.7844L2036.7856,2300.7844Q2188.232,2295.3848,2219.5493,2286.3494C2219.6636,2286.3164,2219.7715,2286.2659,2219.8699,2286.1992L2224.2566,2283.2217C2224.7385,2282.8945,2224.8916,2282.2542,2224.6099,2281.7444Q2219.1526,2271.8696,2082.9473,2265.6506L2082.9514,2265.6506L2082.9333,2265.6497L2082.9238,2265.6494Q2028.9286,2263.1843,1964.0713,2261.6633L1964.0516,2261.6633Q1964.0514,2093.8933,1964.0509,1926.1238L1964.0312,1926.1238Q1983.5574,1926.1228,2003.0834,1926.1228C2003.7057,1926.1228,2004.2101,1925.6184,2004.2101,1924.9961L2004.2101,1904.8569C2004.2101,1904.2346,2003.7057,1903.7302,2003.0834,1903.7302L1850.195,1903.7299L1850.1764,1903.7299Q1850.1763,1860.3291,1850.1763,1816.9293C1850.1763,1816.307,1849.6719,1815.8026,1849.0496,1815.8026L1774.8223,1815.8022L1774.8223,1809.9281L1774.8046,1809.9281Q1836.3804,1809.9274,1897.9562,1809.9274L1915.7052,1809.9274C1916.004,1809.9274,1916.2906,1809.8087,1916.502,1809.5974C1916.7133,1809.3861,1916.8319,1809.0995,1916.8319,1808.8007Q1916.8318,1689.4233,1916.8318,1570.0465C1916.8318,1569.4242,1916.3274,1568.9198,1915.7051,1568.9198L1732.1254,1568.9192L1548.5454,1568.9181 Z"/>
</g>
<g style="fill:rgb(5,180,205); fill-opacity:0.99607843; stroke-linejoin: miter">
<path d="M1849.0497,1923.8694C1849.0299,1923.8694,1849.01,1923.8699,1848.9901,1923.871L1848.9717,1923.872C1848.3618,1923.9043,1847.8888,1924.4165,1847.9049,1925.027L1847.923,1925.027L1847.923,1940.5586C1847.923,1941.1578,1848.392,1941.6523,1848.9905,1941.6838L1849.009,1941.6848L1849.0795,1941.6863L1849.1774,1941.6853L1862.0438,1941.6858L1862.0441,2010.5996C1862.0441,2011.1989,1862.5131,2011.6934,1863.1116,2011.7249L1863.1301,2011.7258L1863.1896,2011.7273L1866.2609,2011.7266L1866.2609,2045.5123L1866.2422,2045.5123Q1864.7303,2045.5125,1863.2188,2045.5132C1863.2028,2045.5125,1863.1868,2045.5121,1863.1708,2045.5121C1863.1511,2045.5121,1863.1316,2045.5127,1863.1119,2045.5137L1863.0933,2045.5146C1862.4833,2045.5465,1862.0098,2046.0587,1862.0258,2046.6693L1862.0441,2046.6693L1862.0441,2077.5845L1862.0254,2077.5845Q1852.6667,2077.5847,1843.3076,2077.5862C1842.8605,2077.5862,1842.4741,2077.8467,1842.2921,2078.2244L1842.2725,2078.2244Q1837.7413,2083.8193,1831.0978,2087.827L1831.0587,2087.8516Q1821.2701,2094.3179,1803.7262,2100.1106Q1778.9347,2107.8105,1747.9418,2109.181C1747.3297,2109.208,1746.8516,2109.719,1746.8651,2110.3315L1746.8823,2110.3315Q1746.8826,2185.3438,1746.8826,2260.3572C1746.8826,2260.667,1747.01,2260.963,1747.2351,2261.1758C1747.4448,2261.3743,1747.722,2261.484,1748.0092,2261.484C1748.0247,2261.484,1748.0402,2261.4836,1748.0558,2261.483L1748.0732,2261.483Q1853.5192,2261.6423,1940.5144,2263.4043C1940.522,2263.4045,1940.5295,2263.4045,1940.5371,2263.4045C1940.8318,2263.4045,1941.1149,2263.289,1941.3258,2263.0825C1941.5421,2262.8706,1941.664,2262.5806,1941.664,2262.2778L1941.664,2262.2769Q1941.6637,2093.6367,1941.6632,1924.9962C1941.6632,1924.3739,1941.1588,1923.8695,1940.5365,1923.8695L1940.5171,1923.8695Q1894.8081,1923.8695,1849.0994,1923.8705L1849.0992,1923.8705C1849.0828,1923.8698,1849.0663,1923.8694,1849.0497,1923.8694 Z"/>
</g>
<g style="fill:rgb(5,180,205); fill-opacity:0.99607843; stroke-linejoin: miter">
<path d="M1622.833,1923.8699Q1588.6156,1923.8699,1554.3984,1923.871L1554.3982,1923.871C1554.3824,1923.8704,1554.3666,1923.87,1554.3506,1923.87C1554.327,1923.87,1554.3035,1923.8707,1554.2798,1923.8722L1554.2643,1923.8732C1553.657,1923.9114,1553.1897,1924.4249,1553.2089,1925.0331L1553.2239,1925.0331Q1553.224,2093.5703,1553.2241,2262.108C1553.2241,2262.7302,1553.7285,2263.2346,1554.3508,2263.2346C1554.3718,2263.2346,1554.3927,2263.2341,1554.4133,2263.233L1554.3978,2263.233Q1631.954,2261.7493,1723.8762,2261.5132L1723.9371,2261.5115L1723.9543,2261.5105C1724.5509,2261.4766,1725.0172,2260.983,1725.0172,2260.3855Q1725.0173,2185.554,1725.0171,2110.7236L1724.9999,2110.7236C1725.0228,2110.633,1725.0349,2110.5383,1725.0344,2110.4407C1725.0317,2109.841,1724.56,2109.3486,1723.961,2109.3203Q1676.4381,2107.0676,1647.5422,2092.7937C1647.4816,2092.7637,1647.4181,2092.7393,1647.353,2092.7207Q1645.1515,2092.0913,1638.3364,2087.6335L1638.334,2087.6335L1633.3052,2083.9978L1633.3068,2083.9978Q1628.8074,2080.4397,1625.8987,2076.839Q1625.6989,2076.5918,1625.5094,2076.3489C1625.3104,2076.0938,1625.0116,2075.9365,1624.6886,2075.917L1624.6724,2075.916L1624.6046,2075.914Q1615.6124,2075.9148,1606.6206,2075.915L1606.6206,2046.6414C1606.6206,2046.0455,1606.1567,2045.5526,1605.562,2045.5166L1605.5459,2045.5156L1605.4778,2045.5137L1596.4209,2045.5137L1596.4209,2011.726L1605.4938,2011.7268C1605.7926,2011.7268,1606.0793,2011.6082,1606.2906,2011.3969C1606.502,2011.1855,1606.6206,2010.8989,1606.6206,2010.6001L1606.6206,2010.5991L1606.6206,1940.0144L1619.4985,1940.0149L1619.4982,1940.0149L1622.8489,1940.016L1622.8494,1940.016C1623.1481,1940.016,1623.4346,1939.8973,1623.6459,1939.6862C1623.8573,1939.4749,1623.976,1939.1882,1623.976,1938.8893L1623.976,1938.8883L1623.976,1924.9966C1623.976,1924.3743,1623.4716,1923.8699,1622.8492,1923.8699 Z"/>
</g>
</g>
<g id="layer2">
<g style="fill:rgb(0,0,0); fill-opacity:0.21176471; stroke-linejoin: miter">
<path d="M2332.3118,2303.527L2327.198,2306.998Q2290.847,2317.4856,2114.466,2323.7744Q1936.8646,2330.0571,1696.1915,2328.8691Q1466.4993,2327.2092,1328.7864,2319.156Q1284.6615,2316.5525,1256.0958,2313.4824L1232.0869,2310.3257Q1212.3015,2307.0684,1212.0791,2303.5264Q1218.0854,2292.6582,1376.1338,2285.4429Q1534.1814,2278.2258,1772.1962,2277.9517Q2010.2098,2278.2258,2168.258,2285.4429Q2326.3054,2292.659,2332.3118,2303.527 Z"/>
</g>
<g style="fill:rgb(0,0,0); fill-opacity:1.0; stroke-linejoin: miter">
<path d="M1709.469,1732.6256L1758.6477,1732.6254L1807.8265,1732.6256Q1807.8263,1794.7413,1807.8263,1856.8566Q1758.6481,1856.8568,1709.4691,1856.8575Q1709.469,1794.7413,1709.469,1732.6256 Z"/>
</g>
<g style="fill:rgb(0,0,0); fill-opacity:1.0; stroke-linejoin: miter">
<path d="M1545.3672,1473.2578L1759.3679,1473.2592L1973.3683,1473.2599Q1973.3685,1612.4183,1973.3683,1751.5773Q1759.3676,1751.5768,1545.3668,1751.577Q1545.3672,1612.418,1545.3672,1473.2578 Z"/>
</g>
<g style="fill:rgb(255,255,255); fill-opacity:1.0; stroke-linejoin: miter">
<path d="M1556.2279,1485.8197L1759.3679,1485.8201L1962.5074,1485.8208Q1962.5079,1611.663,1962.5072,1737.5055Q1759.3676,1737.505,1556.2278,1737.5055Q1556.2279,1611.6626,1556.2279,1485.8197 Z"/>
</g>
<g style="fill:rgb(0,0,0); fill-opacity:1.0; stroke-linejoin: miter">
<path d="M1638.8018,1843.2506L1758.6481,1843.2518L1878.4943,1843.2526Q1878.494,1852.788,1878.494,1862.3234Q1758.6481,1862.3234,1638.8018,1862.3236Q1638.8015,1852.7875,1638.8018,1843.2506 Z"/>
</g>
<g style="fill:rgb(255,255,255); fill-opacity:0.99607843; stroke-linejoin: miter">
<path d="M1457.7733,1863.5494L1766.5,1863.5499L2075.2258,1863.5509Q2075.2258,1875.2892,2075.2258,1887.0272Q1766.5,1887.0275,1457.7733,1887.0282Q1457.7733,1875.2887,1457.7733,1863.5494 Z"/>
</g>
<g style="fill:rgb(255,255,255); fill-opacity:0.99607843; stroke-linejoin: miter">
<path d="M1526.0367,1886.2604L1539.0854,1886.2609L1552.1342,1886.2614Q1552.1343,2092.5894,1552.1344,2298.9165Q1539.0857,2298.9172,1526.0371,2298.9177Q1526.0369,2092.5894,1526.0367,1886.2604 Z"/>
</g>
<g style="fill:rgb(255,255,255); fill-opacity:0.99607843; stroke-linejoin: miter">
<path d="M2002.3143,1886.2604L2015.3629,1886.2614L2028.412,1886.2621Q2028.4125,2092.5896,2028.4127,2298.9165Q2015.3639,2298.9172,2002.3153,2298.9172Q2002.3151,2092.589,2002.3143,1886.2604 Z"/>
</g>
<g style="fill:rgb(60,70,79); fill-opacity:1.0; stroke-linejoin: miter">
<path d="M1879.4777,1905.1683L1895.8031,1905.1686L1912.1283,1905.1691Q1912.1285,1985.6918,1912.1285,2066.2144Q1895.8036,2066.2148,1879.4777,2066.2156Q1879.4777,1985.6918,1879.4777,1905.1683 Z"/>
</g>
<g style="fill:rgb(60,70,79); fill-opacity:1.0; stroke-linejoin: miter">
<path d="M1611.7523,1903.2208L1628.0778,1903.2213L1644.4034,1903.2223Q1644.4036,1983.7445,1644.4036,2064.2666Q1628.0778,2064.2676,1611.7523,2064.2683Q1611.7523,1983.7445,1611.7523,1903.2208 Z"/>
</g>
<g style="fill:rgb(34,43,50); fill-opacity:1.0; stroke-linejoin: miter">
<path d="M1883.704,2306.318L1882.6097,2308.658Q1874.8295,2315.7275,1837.0802,2319.9668Q1799.0692,2324.2021,1747.5593,2323.4019Q1698.4,2322.2825,1668.926,2316.8535Q1659.4823,2315.0981,1653.3685,2313.029L1648.2301,2310.902Q1643.9954,2308.7056,1643.9481,2306.3184Q1645.2336,2298.992,1679.0593,2294.1272Q1712.8857,2289.2622,1763.8259,2289.0784Q1814.7665,2289.2622,1848.5927,2294.1272Q1882.4186,2298.992,1883.704,2306.318 Z"/>
</g>
<g style="fill:rgb(34,43,50); fill-opacity:1.0; stroke-linejoin: miter">
<path d="M1896.6932,2047.91L1895.4669,2055.4539Q1889.2648,2069.6135,1875.4193,2077.9653Q1863.8624,2085.5996,1843.2452,2092.4072Q1803.3544,2104.802,1749.83,2103.2097Q1694.1293,2100.575,1660.1868,2083.808Q1657.4199,2083.0168,1649.2648,2077.6797L1643.4027,2073.4414Q1638.0135,2069.186,1634.5167,2064.8574Q1627.5233,2056.2004,1628.0988,2047.2509Q1629.9697,2024.0614,1667.5126,2008.7443Q1706.452,1992.6439,1762.3912,1992.3202Q1814.8644,1992.5377,1854.7526,2007.4047Q1895.0729,2023.4359,1896.6932,2047.91 Z"/>
</g>
<g style="fill:rgb(35,75,105); fill-opacity:0.99607843; stroke-linejoin: miter">
<path d="M1515.0897,1667.5151L1515.0897,1667.5157L1515.0897,1667.5164L1515.0897,1667.5157L1515.0897,1667.5151L1515.0897,1667.5157L1515.0897,1667.5164Q1515.0897,1667.5157,1515.0897,1667.5151 Z"/>
</g>
<g style="fill:rgb(34,43,50); fill-opacity:1.0; stroke-linejoin: miter">
<path d="M1749.7682,2077.9924L1763.8256,2077.993L1777.8835,2077.9934Q1777.8838,2194.1716,1777.8838,2310.3503Q1763.8257,2310.3508,1749.7683,2310.3513Q1749.7684,2194.1716,1749.7682,2077.9924 Z"/>
</g>
<g style="fill:rgb(34,43,50); fill-opacity:1.0; stroke-linejoin: miter">
<path d="M1599.8624,1986.8153L1758.4534,1986.8158L1917.0441,1986.816Q1917.0441,2007.8219,1917.0441,2028.8273Q1758.4532,2028.8282,1599.8624,2028.829Q1599.8624,2007.8219,1599.8624,1986.8153 Z"/>
</g>
<g style="fill:rgb(201,214,222); fill-opacity:0.99607843; stroke-linejoin: miter">
<path d="M1430.1626,1330.2233L1430.1626,1330.2238L1430.1626,1330.2242L1430.1626,1330.2238L1430.1626,1330.2233L1430.1626,1330.2238L1430.1626,1330.2242Q1430.1626,1330.2238,1430.1626,1330.2233 Z"/>
</g>
<g style="fill:rgb(34,43,50); fill-opacity:1.0; stroke-linejoin: miter">
<path d="M1631.9833,1761.0516L1763.8252,1761.0521L1895.6674,1761.0529Q1895.6674,1910.3348,1895.6678,2059.6167Q1763.8256,2059.6177,1631.9838,2059.618Q1631.9838,1910.3351,1631.9833,1761.0516 Z"/>
</g>
<g>
<g style="fill:rgb(0,0,0); fill-opacity:1.0; stroke-linejoin: miter">
<path d="M1630.5143,1570.6985Q1629.4562,1570.6985,1628.7263,1571.0635Q1627.8506,1571.5013,1627.2303,1572.1216Q1626.683,1572.669,1626.1721,1573.6906Q1625.8073,1574.4203,1625.8073,1575.5516Q1625.8073,1576.6097,1626.1721,1577.3395Q1626.61,1578.2151,1627.2303,1578.8356Q1627.8506,1579.4558,1628.7263,1579.8937Q1629.4562,1580.2585,1630.5143,1580.2585Q1631.5724,1580.2585,1632.3022,1579.8937Q1633.178,1579.4558,1633.7982,1578.8356Q1634.4185,1578.2151,1634.8563,1577.3395Q1635.2213,1576.6097,1635.2213,1575.5516Q1635.2213,1574.4203,1634.8563,1573.6906Q1634.3455,1572.669,1633.7982,1572.1216Q1633.178,1571.5013,1632.3022,1571.0635Q1631.5724,1570.6985,1630.5143,1570.6985 Z M1849.4816,1586.8264Q1849.516,1586.8264,1849.5502,1586.8267L1849.5502,1586.8267Q1849.589,1586.8264,1849.6276,1586.8264 Z M1849.7006,1591.6794L1849.6276,1591.7524Q1851.9628,1591.7524,1853.7509,1592.5187Q1855.5387,1593.2849,1856.8158,1594.6715Q1857.8011,1595.7661,1858.6039,1598.065Q1859.297,1600.0718,1859.297,1602.2246L1838.7177,1602.2246Q1839.3744,1597.3716,1842.184,1594.4525Q1844.8419,1591.6854,1849.6796,1591.6794 Z M1657.4062,1592.0808Q1663.1715,1592.0808,1665.7622,1595.8026Q1668.5353,1599.7799,1668.5353,1606.3478Q1668.5353,1612.9158,1665.7622,1616.893Q1663.1715,1620.6147,1657.4062,1620.6147Q1654.9252,1620.6147,1652.4803,1619.5566Q1650.3275,1618.6079,1649.0139,1616.893Q1647.5543,1614.9956,1646.9341,1612.4049Q1646.1678,1609.267,1646.1678,1606.4208Q1646.1678,1603.4287,1646.9341,1600.2908Q1647.5543,1597.7001,1649.0139,1595.8026Q1650.5465,1593.7958,1652.4803,1592.9565Q1654.5237,1592.0808,1657.4062,1592.0808 Z M1701.2655,1592.0808Q1703.6372,1592.0808,1705.3522,1592.8105Q1706.9575,1593.5038,1708.3441,1595.3647Q1709.6578,1597.1162,1710.2781,1599.7069Q1710.8983,1602.2246,1710.8983,1605.9829L1710.8983,1606.5667Q1710.8983,1609.3763,1710.1321,1612.2589Q1709.3658,1614.8861,1707.9792,1616.747L1707.9062,1616.893Q1706.4103,1618.8634,1704.4764,1619.7025Q1702.8345,1620.5054,1700.4261,1620.6147L1698.4923,1620.6147Q1694.4785,1620.4324,1691.0122,1619.4106L1691.0122,1616.1267L1691.0122,1606.7126L1691.0122,1597.8094Q1692.9825,1595.1824,1695.5002,1593.5768Q1697.8354,1592.0808,1701.2655,1592.0808 Z M1755.1224,1592.0808Q1760.8875,1592.0808,1763.4781,1595.8026Q1766.2513,1599.7799,1766.2513,1606.3478Q1766.2513,1612.9158,1763.4781,1616.893Q1760.8875,1620.6147,1755.1224,1620.6147Q1752.6411,1620.6147,1750.1965,1619.5566Q1748.0437,1618.6079,1746.7301,1616.893Q1745.2705,1614.9956,1744.6503,1612.4049Q1743.884,1609.267,1743.884,1606.4208Q1743.884,1603.4287,1744.6503,1600.2908Q1745.2705,1597.7001,1746.7301,1595.8026Q1748.2625,1593.7958,1750.1965,1592.9565Q1752.2397,1592.0808,1755.1224,1592.0808 Z M1795.9896,1570.9175Q1789.8231,1570.9175,1786.466,1574.4203Q1782.9631,1577.9232,1782.9631,1584.5276L1782.9631,1588.1766L1776.9789,1588.1766L1776.9789,1590.8767Q1776.9789,1592.1538,1778.8035,1592.5917L1782.9631,1593.1025L1782.9631,1619.7755L1778.329,1620.6147Q1777.2345,1620.8336,1777.2345,1622.0377L1777.2345,1625.2489L1795.7343,1625.2489L1795.7343,1622.0377Q1795.7343,1620.8336,1794.6395,1620.6147Q1792.6327,1620.2134,1789.6405,1619.7755L1789.6405,1592.9565L1800.3683,1592.9565L1800.3683,1588.1766L1789.4581,1588.1766L1789.4581,1584.6736Q1789.4581,1576.0623,1797.0841,1576.0623L1798.1425,1576.0623Q1799.4196,1576.0623,1799.8573,1575.9164Q1800.5507,1575.6974,1800.5507,1575.0408L1800.6967,1571.6837Q1798.0695,1570.9175,1795.9896,1570.9175 Z M1823.7574,1570.9175Q1817.5907,1570.9175,1814.2338,1574.4203Q1810.7308,1577.9232,1810.7308,1584.5276L1810.7308,1588.1766L1804.747,1588.1766L1804.747,1590.8767Q1804.747,1592.1538,1806.5712,1592.5917L1810.7308,1593.1025L1810.7308,1619.7755L1806.0968,1620.6147Q1805.0023,1620.8336,1805.0023,1622.0377L1805.0023,1625.2489L1823.5018,1625.2489L1823.5018,1622.0377Q1823.5018,1620.8336,1822.4071,1620.6147Q1820.4003,1620.2134,1817.4083,1619.7755L1817.4083,1592.9565L1828.1359,1592.9565L1828.1359,1588.1766L1817.226,1588.1766L1817.226,1584.6736Q1817.226,1576.0623,1824.8519,1576.0623L1825.9103,1576.0623Q1827.1871,1576.0623,1827.6251,1575.9164Q1828.3182,1575.6974,1828.3182,1575.0408L1828.4642,1571.6837Q1825.8373,1570.9175,1823.7574,1570.9175 Z M1892.903,1586.6804Q1885.5321,1586.6804,1881.3724,1595.1458L1881.2994,1595.1458L1880.8617,1589.2347Q1880.643,1588.213,1880.2413,1587.8116Q1879.8766,1587.4468,1878.8549,1587.4468L1869.6598,1587.4468L1869.6598,1590.5847Q1869.6598,1591.7888,1870.7543,1592.0078Q1871.4113,1592.2267,1875.0236,1592.8835L1875.0236,1619.8849L1870.7543,1620.6877Q1869.6598,1620.9066,1869.6598,1622.1107L1869.6598,1625.2489L1887.0648,1625.2489L1887.0648,1622.1107Q1887.0648,1620.9066,1885.9337,1620.6877Q1885.0214,1620.5054,1884.0363,1620.3228Q1883.0511,1620.1404,1882.4672,1620.0309Q1881.9198,1619.9579,1881.6644,1619.8849L1881.6644,1601.2029Q1884.839,1593.2484,1891.4069,1593.2484Q1893.122,1593.2484,1894.472,1593.6498Q1895.6761,1594.0146,1896.2599,1594.0146Q1896.953,1594.0146,1897.2086,1593.0295L1898.0477,1588.0306Q1895.8219,1586.6804,1892.903,1586.6804 Z M1657.4062,1586.8264Q1653.2102,1586.8264,1649.9261,1588.1766Q1646.5692,1589.5631,1644.161,1592.0808Q1641.9717,1594.3795,1640.5121,1598.2109Q1639.308,1601.3853,1639.308,1606.2748Q1639.308,1611.1643,1640.5121,1614.3387Q1641.9717,1618.17,1644.161,1620.4688Q1646.5326,1622.9501,1649.9261,1624.3365Q1653.2102,1625.6868,1657.4062,1625.6868Q1661.5659,1625.6868,1664.8499,1624.3365Q1668.2434,1622.9501,1670.6151,1620.4688Q1672.8773,1618.097,1674.1909,1614.3387Q1675.468,1610.69,1675.468,1606.2748Q1675.468,1601.8597,1674.1909,1598.2109Q1672.8773,1594.4525,1670.6151,1592.0808Q1668.2068,1589.5631,1664.8499,1588.1766Q1661.5659,1586.8264,1657.4062,1586.8264 Z M1755.1224,1586.8264Q1750.9261,1586.8264,1747.6422,1588.1766Q1744.2853,1589.5631,1741.877,1592.0808Q1739.6877,1594.3795,1738.2281,1598.2109Q1737.024,1601.3853,1737.024,1606.2748Q1737.024,1611.1643,1738.2281,1614.3387Q1739.6877,1618.17,1741.877,1620.4688Q1744.2488,1622.9501,1747.6422,1624.3365Q1750.9261,1625.6868,1755.1224,1625.6868Q1759.2821,1625.6868,1762.566,1624.3365Q1765.9595,1622.9501,1768.3312,1620.4688Q1770.5935,1618.097,1771.9071,1614.3387Q1773.1842,1610.69,1773.1842,1606.2748Q1773.1842,1601.8597,1771.9071,1598.2109Q1770.5935,1594.4525,1768.3312,1592.0808Q1765.923,1589.5631,1762.566,1588.1766Q1759.2821,1586.8264,1755.1224,1586.8264 Z M1678.3872,1570.2606L1678.3872,1573.4718Q1678.3872,1573.9824,1678.7156,1574.3839Q1679.044,1574.7853,1679.5183,1574.8948Q1679.7737,1574.9678,1680.7588,1575.1138Q1681.7075,1575.2596,1682.8752,1575.442Q1684.0063,1575.588,1684.2982,1575.6244L1684.2982,1617.6957L1684.2982,1623.169L1684.2982,1623.7527L1686.9619,1624.3002Q1689.662,1624.8109,1693.8583,1625.3218Q1698.018,1625.8325,1701.01,1625.8325Q1704.7318,1625.8325,1707.6144,1624.519Q1710.6794,1623.1324,1712.8322,1620.7607Q1714.985,1618.3889,1716.4082,1614.6307Q1717.7582,1611.0548,1717.7582,1606.3478L1717.7582,1606.2748L1717.7582,1606.1288L1717.6123,1606.1288Q1717.6123,1601.6042,1716.5542,1597.7365Q1715.6053,1594.3066,1713.7445,1591.7524Q1711.92,1589.2711,1709.2563,1588.0306Q1706.7023,1586.8264,1703.2723,1586.8264Q1699.295,1586.8264,1696.376,1588.4684Q1693.4204,1590.1469,1691.0122,1592.8835L1691.0122,1570.2606 Z M1849.539,1586.8267Q1845.4337,1586.8417,1842.257,1588.2494Q1838.9,1589.7456,1836.6378,1592.2267Q1834.5214,1594.5619,1833.1349,1598.2109Q1831.8578,1601.6042,1831.8578,1605.5085Q1831.8578,1610.3981,1833.2079,1614.1929Q1834.5944,1618.1335,1836.9296,1620.5417Q1839.4838,1623.2054,1842.695,1624.519Q1845.9059,1625.8325,1849.9559,1625.8325Q1851.7804,1625.8325,1854.0426,1625.4678Q1855.6117,1625.2123,1858.0929,1624.4095Q1859.3336,1624.0082,1861.7418,1622.5486Q1863.6757,1621.3811,1864.7338,1620.0309L1862.8729,1617.5497Q1862.4349,1616.893,1861.5958,1616.893Q1861.0485,1616.893,1860.0997,1617.4768Q1859.151,1618.0605,1857.8739,1618.6809Q1856.0131,1619.5566,1854.736,1619.9579Q1853.0575,1620.4688,1850.3939,1620.4688Q1847.9491,1620.4688,1845.6139,1619.5566Q1843.461,1618.7174,1841.8556,1616.893Q1840.1041,1614.8861,1839.3378,1612.5509Q1838.4257,1609.7412,1838.4257,1606.2748L1863.5297,1606.2748Q1864.4784,1606.2748,1864.8798,1605.7275Q1865.1718,1605.326,1865.1718,1603.6477Q1865.1718,1599.8163,1864.004,1596.496Q1862.9825,1593.6134,1860.6837,1591.1686Q1858.6769,1589.0522,1855.7577,1587.9576Q1852.8014,1586.84,1849.5602,1586.8267 Z M1621.6841,1587.4468L1621.6841,1590.6577Q1621.6841,1591.8618,1622.7422,1592.0808Q1623.9829,1592.3363,1625.5153,1592.5917Q1627.0115,1592.847,1627.0844,1592.8835L1627.0844,1628.0948Q1627.0844,1631.0505,1625.8073,1632.437Q1624.6031,1633.7506,1621.6841,1633.7506L1620.1881,1633.7506Q1619.1298,1633.7506,1618.984,1634.5168L1618.692,1638.0928Q1621.0638,1638.859,1623.326,1638.859Q1625.9531,1638.859,1627.8871,1638.0198L1627.8871,1638.0928Q1633.6522,1635.6481,1633.6522,1628.0948L1633.6522,1587.4468 Z"/>
</g>
</g>
<g style="fill:rgb(255,255,255); fill-opacity:0.99607843; stroke-linejoin: miter">
<path d="M1672.5869,1823.9117L1768.6401,1823.9125L1864.6932,1823.913Q1864.6932,1880.5133,1864.6932,1937.1134Q1768.6401,1937.1141,1672.5869,1937.1146Q1672.5869,1880.5131,1672.5869,1823.9117"/>
</g>
<g style="fill:rgb(0,0,0); fill-opacity:1.0; stroke-linejoin: miter">
<path d="M1710.0172,1837.214Q1709.0812,1837.214,1708.7772,1838.1251L1703.2856,1855.1315Q1702.3494,1858.194,1702.248,1858.7252Q1702.1974,1858.371,1702.071,1857.8143Q1701.9697,1857.2828,1701.7927,1856.4982Q1701.6407,1855.7137,1701.5144,1855.1315L1697.3641,1841.0353Q1697.9714,1840.9086,1698.68,1840.7823Q1699.3884,1840.6561,1699.7428,1840.58Q1700.097,1840.5289,1700.2234,1840.4786Q1701.008,1840.327,1701.008,1839.4918L1701.008,1837.3153L1689.2909,1837.3175L1689.2909,1839.4918Q1689.2909,1840.327,1690.1008,1840.4786Q1690.1766,1840.4786,1690.3789,1840.5289Q1690.5563,1840.5548,1690.9866,1840.6561Q1691.3915,1840.757,1691.8215,1840.8331Q1692.4292,1840.985,1692.7075,1840.985L1699.9705,1863.5333L1703.4883,1863.5355Q1704.2473,1863.5333,1704.526,1862.6481L1710.4222,1844.882Q1710.4729,1844.6796,1710.5995,1844.2999Q1710.7006,1843.9457,1710.7512,1843.7433Q1710.8019,1843.5406,1710.8525,1843.1105Q1710.9032,1842.7057,1710.9536,1842.503Q1711.0043,1842.6805,1711.0802,1843.0856Q1711.1562,1843.4901,1711.2069,1843.642Q1711.4346,1844.528,1711.5609,1844.882L1717.3815,1862.6981Q1717.5839,1863.5328,1718.3179,1863.5328L1721.9368,1863.5353L1729.2509,1841.0353Q1729.3013,1841.0353,1729.4785,1840.985Q1729.6302,1840.9596,1729.934,1840.8837Q1730.2379,1840.8331,1730.5413,1840.7823Q1730.8452,1840.7318,1731.1486,1840.6561Q1731.4269,1840.6053,1731.6042,1840.5548Q1731.7559,1840.5289,1731.8322,1840.5289Q1732.6166,1840.3773,1732.6166,1839.5931L1732.6166,1837.3656L1720.8994,1837.3153L1720.8994,1839.4918Q1720.8994,1840.3016,1721.7344,1840.4786Q1724.5183,1841.0353,1724.746,1841.0353L1720.4941,1855.131Q1719.9878,1857.0546,1719.7097,1858.649Q1719.3048,1857.1051,1718.7732,1855.131L1713.3328,1838.1251Q1713.0288,1837.214,1712.0419,1837.214 Z"/>
</g>
<g style="fill:rgb(0,0,0); fill-opacity:1.0; stroke-linejoin: miter">
<path d="M1814.6613,1836.784Q1809.5492,1836.7838,1806.6644,1842.6549L1806.6134,1842.6571L1806.3099,1838.5553Q1806.1583,1837.8463,1805.8798,1837.568Q1805.6268,1837.3151,1804.9181,1837.3151L1798.5409,1837.3173L1798.5409,1839.4916Q1798.5409,1840.3265,1799.3002,1840.4784Q1799.7555,1840.63,1802.2609,1841.086L1802.2609,1859.8129L1799.3002,1860.3698Q1798.5409,1860.5214,1798.5409,1861.3568L1798.5409,1863.5328L1810.6119,1863.5355L1810.6119,1861.3573Q1810.6119,1860.5216,1809.828,1860.3698Q1809.195,1860.2433,1808.5118,1860.1166Q1807.8282,1859.9901,1807.4237,1859.9147Q1807.0441,1859.8634,1806.8668,1859.8129L1806.8663,1846.8556Q1809.0687,1841.339,1813.6237,1841.3392Q1814.8131,1841.3392,1815.7491,1841.6176Q1816.5846,1841.871,1816.9896,1841.871Q1817.4706,1841.871,1817.6476,1841.1869L1818.2296,1837.7203Q1816.6859,1836.784,1814.6613,1836.784 Z"/>
</g>
<g style="fill:rgb(0,0,0); fill-opacity:1.0; stroke-linejoin: miter">
<path d="M1740.166,1877.9899Q1739.432,1877.9899,1738.926,1878.2428Q1738.3187,1878.5468,1737.8884,1878.9769Q1737.5088,1879.3566,1737.1544,1880.0651Q1736.9014,1880.5714,1736.9014,1881.3556Q1736.9014,1882.09,1737.1544,1882.5963Q1737.4581,1883.2035,1737.8884,1883.6334Q1738.3187,1884.0634,1738.926,1884.3671Q1739.432,1884.6202,1740.166,1884.6202Q1740.9,1884.6202,1741.406,1884.3671Q1742.0133,1884.0634,1742.4436,1883.6334Q1742.8737,1883.2035,1743.1776,1882.5963Q1743.481,1881.9882,1743.481,1881.3556Q1743.481,1880.6722,1743.1776,1880.0651Q1742.823,1879.3566,1742.4436,1878.9769Q1742.0133,1878.5468,1741.406,1878.2428Q1740.9,1877.9899,1740.166,1877.9899 Z"/>
</g>
<g style="fill:rgb(0,0,0); fill-opacity:1.0; stroke-linejoin: miter">
<path d="M1777.4938,1877.9899Q1776.7598,1877.9899,1776.2534,1878.2428Q1775.6461,1878.5468,1775.2161,1878.9769Q1774.8364,1879.3566,1774.4822,1880.0651Q1774.2291,1880.5714,1774.2291,1881.3556Q1774.2291,1882.09,1774.4822,1882.5963Q1774.7858,1883.2035,1775.2161,1883.6334Q1775.6461,1884.0634,1776.2534,1884.3671Q1776.7598,1884.6202,1777.4938,1884.6202Q1778.2274,1884.6202,1778.7338,1884.3671Q1779.3413,1884.0634,1779.7714,1883.6334Q1780.2014,1883.2035,1780.5051,1882.5963Q1780.809,1881.9882,1780.809,1881.3556Q1780.809,1880.6722,1780.5051,1880.0651Q1780.151,1879.3566,1779.7714,1878.9769Q1779.3413,1878.5468,1778.7338,1878.2428Q1778.2274,1877.9899,1777.4938,1877.9899 Z"/>
</g>
<g style="fill:rgb(0,0,0); fill-opacity:1.0; stroke-linejoin: miter">
<path d="M1701.3453,1877.6864L1701.3453,1879.8632Q1701.3453,1880.6725,1702.1805,1880.8495Q1702.636,1881.0018,1705.5969,1881.4576L1705.5969,1912.1041L1702.6866,1912.661Q1701.877,1912.8121,1701.877,1913.6476L1701.877,1915.8236L1713.9988,1915.8258L1713.9988,1913.6476Q1713.9988,1912.838,1713.1638,1912.661Q1712.7334,1912.559,1710.8859,1912.205L1710.2534,1912.1041L1710.2532,1896.5399Q1713.5431,1892.871,1717.3137,1892.871Q1722.856,1892.871,1722.8563,1899.1464L1722.8563,1915.8236L1731.2078,1915.8258L1731.2078,1913.6476Q1731.2078,1912.8121,1730.4229,1912.661Q1729.7905,1912.4584,1727.4619,1912.0282L1727.4619,1899.1464Q1727.4617,1894.5912,1725.1843,1891.8829Q1722.8813,1889.1752,1718.655,1889.1752Q1714.0492,1889.1752,1710.2532,1893.1241L1710.2532,1877.6862 Z"/>
</g>
<g style="fill:rgb(0,0,0); fill-opacity:1.0; stroke-linejoin: miter">
<path d="M1734.0922,1889.6063L1734.0922,1891.7823Q1734.0922,1892.1364,1734.3201,1892.4152Q1734.5479,1892.6927,1734.8768,1892.7689Q1735.3324,1892.871,1737.8884,1893.3256L1737.8887,1912.0282L1734.8771,1912.6095Q1734.5481,1912.6857,1734.3204,1912.9642Q1734.0924,1913.2421,1734.0924,1913.5973L1734.0924,1915.8236L1746.1896,1915.8258L1746.1896,1913.5973Q1746.1896,1913.2421,1745.9615,1912.9642Q1745.7336,1912.6857,1745.4045,1912.6095Q1744.949,1912.5087,1742.444,1912.0282L1742.4436,1889.6063 Z"/>
</g>
<g style="fill:rgb(0,0,0); fill-opacity:1.0; stroke-linejoin: miter">
<path d="M1765.3463,1889.0743Q1760.2344,1889.0743,1757.3494,1894.945L1757.2987,1894.9474L1756.9951,1890.8461Q1756.8431,1890.1371,1756.5648,1889.8593Q1756.3118,1889.6063,1755.6034,1889.6063L1749.2258,1889.6085L1749.2258,1891.7823Q1749.2258,1892.6178,1749.9849,1892.7689Q1750.4406,1892.9213,1752.9458,1893.3761L1752.9462,1912.1041L1749.9852,1912.661Q1749.2262,1912.8121,1749.2262,1913.6476L1749.2262,1915.8236L1761.2976,1915.8258L1761.2976,1913.6476Q1761.2976,1912.8121,1760.513,1912.661Q1759.8804,1912.5343,1759.197,1912.4078Q1758.5137,1912.2811,1758.109,1912.205Q1757.7294,1912.1547,1757.552,1912.1041L1757.552,1899.1464Q1759.7537,1893.629,1764.309,1893.629Q1765.4983,1893.629,1766.4346,1893.9081Q1767.2697,1894.1613,1767.6746,1894.1613Q1768.1553,1894.1613,1768.3325,1893.4779L1768.9146,1890.0106Q1767.371,1889.0743,1765.3463,1889.0743 Z"/>
</g>
<g style="fill:rgb(0,0,0); fill-opacity:1.0; stroke-linejoin: miter">
<path d="M1771.4202,1889.6063L1771.4202,1891.7823Q1771.4202,1892.1364,1771.6476,1892.4152Q1771.8755,1892.6927,1772.2045,1892.7689Q1772.6602,1892.8698,1775.2161,1893.3256L1775.2164,1912.0282L1772.2048,1912.6095Q1771.8759,1912.6857,1771.6478,1912.9642Q1771.4204,1913.2421,1771.4204,1913.5973L1771.4204,1915.8236L1783.5167,1915.8256L1783.5167,1913.597Q1783.5167,1913.2418,1783.289,1912.964Q1783.0613,1912.6854,1782.7323,1912.609Q1782.2767,1912.5084,1779.7714,1912.028L1779.7714,1889.6063 Z"/>
</g>
<g style="fill:rgb(0,0,0); fill-opacity:1.0; stroke-linejoin: miter">
<path d="M1803.3319,1889.1246Q1798.4982,1889.1246,1794.6266,1893.3256L1794.6266,1893.3761L1794.2218,1890.5426Q1793.9178,1889.6063,1792.9816,1889.6063L1786.5536,1889.6085L1786.5536,1891.7823Q1786.5536,1892.6168,1787.2622,1892.7689Q1787.6672,1892.8956,1790.2738,1893.3761L1790.2738,1912.1039L1787.2622,1912.6605Q1786.5536,1912.8116,1786.5536,1913.6473L1786.5536,1915.8234L1798.6251,1915.8256L1798.6251,1913.6473Q1798.6251,1912.8116,1797.8405,1912.6605Q1794.9049,1912.028,1794.8292,1912.028L1794.8292,1896.4896Q1798.1188,1892.8195,1801.9911,1892.8195Q1807.4823,1892.8195,1807.4823,1899.1459L1807.4823,1915.8234L1815.8844,1915.8258L1815.8844,1913.5973Q1815.8844,1912.7875,1815.0492,1912.6095Q1814.4161,1912.4078,1812.0883,1911.9767L1812.0883,1899.0702Q1812.0883,1894.6171,1809.8612,1891.8829Q1807.5836,1889.1246,1803.3319,1889.1246 Z"/>
</g>
<g style="fill:rgb(0,0,0); fill-opacity:1.0; stroke-linejoin: miter">
<path d="M1782.9518,1836.7838Q1779.7125,1836.7838,1777.3589,1837.8214Q1774.6763,1838.9857,1772.677,1840.9342L1773.5122,1842.3766Q1773.6892,1842.756,1774.0436,1843.0089Q1774.3221,1843.2115,1774.8535,1843.2115Q1775.5115,1843.2115,1776.0428,1842.807Q1776.1189,1842.7306,1777.5615,1841.8705Q1778.3458,1841.3895,1779.5352,1840.9342Q1780.7247,1840.4784,1782.3698,1840.4784Q1784.9001,1840.4784,1786.2667,1842.0726Q1787.608,1843.6417,1787.6078,1846.7296L1787.6078,1848.7538Q1783.1538,1848.7538,1780.0411,1849.4369Q1777.1815,1850.0697,1775.0809,1851.3094Q1773.183,1852.4484,1772.2722,1853.8915Q1771.4373,1855.2323,1771.4373,1856.903Q1771.4373,1858.7504,1772.0189,1860.016Q1772.6266,1861.3319,1773.5629,1862.192Q1774.3221,1862.9003,1775.8912,1863.4323Q1777.2325,1863.8876,1778.7002,1863.8876Q1780.4464,1863.8876,1781.4838,1863.6342Q1782.4708,1863.4066,1783.787,1862.85Q1784.8243,1862.4198,1785.8367,1861.6102Q1787.3297,1860.3949,1787.9117,1859.9147L1788.4437,1862.3947Q1788.6202,1863.1283,1788.9493,1863.2296Q1789.5568,1863.4323,1790.0377,1863.4323L1795.4279,1863.4344L1795.4279,1861.2047Q1795.4279,1860.8507,1795.2003,1860.5726Q1794.9979,1860.2943,1794.6688,1860.2179L1794.6688,1860.3192Q1794.34,1860.2179,1792.0619,1859.7369L1792.0616,1846.6283Q1792.0619,1844.2997,1791.5055,1842.6039Q1790.8983,1840.7316,1789.734,1839.4916Q1788.5953,1838.2767,1786.874,1837.5177Q1785.2291,1836.7838,1782.9518,1836.7838 Z M1787.5067,1851.7145L1787.507,1857.1051Q1786.4696,1858.1427,1785.963,1858.5477Q1784.9761,1859.3319,1784.2421,1859.6866Q1783.2551,1860.1676,1782.3191,1860.3698Q1781.1802,1860.6229,1780.1425,1860.6229Q1779.2821,1860.6229,1778.4469,1860.3698Q1777.6879,1860.1417,1777.0802,1859.6866Q1776.4985,1859.2313,1776.1696,1858.4462Q1775.7899,1857.5101,1775.7899,1856.7001Q1775.7899,1855.7133,1776.4222,1854.7264Q1777.0048,1853.7902,1778.4972,1853.1573Q1780.2688,1852.3981,1782.1162,1852.0687Q1784.1407,1851.7145,1787.5067,1851.7145 Z"/>
</g>
<g style="fill:rgb(0,0,0); fill-opacity:1.0; stroke-linejoin: miter">
<path d="M1746.8856,1836.8851L1746.8856,1836.8873Q1744.0337,1836.8939,1741.8284,1837.872Q1739.4998,1838.9095,1737.9308,1840.6302Q1736.4631,1842.2506,1735.5015,1844.7809Q1734.6155,1847.1344,1734.6155,1849.8422Q1734.6155,1853.2333,1735.5519,1855.8654Q1736.5135,1858.5985,1738.1328,1860.2684Q1739.9045,1862.1163,1742.1315,1863.027Q1744.3588,1863.9379,1747.1677,1863.9379Q1748.433,1863.9379,1750.002,1863.6849Q1751.0903,1863.5079,1752.8109,1862.9513Q1753.6715,1862.673,1755.3419,1861.6605Q1756.6832,1860.8507,1757.4171,1859.9147L1756.1262,1858.1937Q1755.8225,1857.7377,1755.2408,1857.7377Q1754.8612,1857.7377,1754.2032,1858.1427Q1753.5452,1858.5477,1752.6593,1858.9781Q1751.3687,1859.5853,1750.4829,1859.8634Q1749.3186,1860.2179,1747.4717,1860.2179Q1745.776,1860.2179,1744.1561,1859.5853Q1742.6631,1859.0033,1741.5494,1857.7377Q1740.3348,1856.3463,1739.8035,1854.7264Q1739.1705,1852.778,1739.1705,1850.3734L1756.5815,1850.3754Q1757.2395,1850.3732,1757.518,1849.9935Q1757.7202,1849.7152,1757.7202,1848.5511Q1757.7206,1845.8939,1756.9109,1843.5912Q1756.2021,1841.5922,1754.6079,1839.8966Q1753.2162,1838.4283,1751.1917,1837.6696Q1749.1382,1836.8932,1746.8868,1836.8851 Z M1746.9904,1840.2509L1746.9397,1840.3014Q1748.5597,1840.3014,1749.7997,1840.8329Q1751.0393,1841.3644,1751.9253,1842.3256Q1752.6089,1843.0853,1753.1655,1844.6793Q1753.6462,1846.0714,1753.646,1847.5646L1739.3734,1847.5668Q1739.8287,1844.1986,1741.7777,1842.1742Q1743.6241,1840.2509,1746.9893,1840.2509 Z"/>
</g>
<g style="fill:rgb(0,0,0); fill-opacity:1.0; stroke-linejoin: miter">
<path d="M1832.4476,1836.8854Q1829.5966,1836.8942,1827.391,1837.872Q1825.0624,1838.9095,1823.4935,1840.6302Q1822.0258,1842.2506,1821.0638,1844.7809Q1820.1779,1847.1344,1820.1779,1849.8422Q1820.1779,1853.2333,1821.1141,1855.8654Q1822.076,1858.5985,1823.6957,1860.2684Q1825.4672,1862.1156,1827.694,1863.027Q1829.921,1863.9379,1832.7303,1863.9379Q1833.9957,1863.9379,1835.5646,1863.6849Q1836.6527,1863.5079,1838.3737,1862.9513Q1839.2343,1862.673,1840.9044,1861.6605Q1842.2455,1860.8507,1842.9799,1859.9147L1841.6888,1858.1937Q1841.3851,1857.7377,1840.8029,1857.7377Q1840.4232,1857.7377,1839.7653,1858.1427Q1839.1073,1858.5477,1838.2218,1858.9781Q1836.9313,1859.5853,1836.0453,1859.8634Q1834.8812,1860.2179,1833.0336,1860.2179Q1831.338,1860.2179,1829.7186,1859.5853Q1828.2255,1859.0033,1827.1122,1857.7377Q1825.8971,1856.3463,1825.3661,1854.7264Q1824.733,1852.778,1824.733,1850.3734L1842.1444,1850.3759Q1842.8024,1850.3734,1843.0807,1849.9938Q1843.2831,1849.7155,1843.2831,1848.5514Q1843.2833,1845.8942,1842.4738,1843.5914Q1841.765,1841.5927,1840.1708,1839.8969Q1838.7784,1838.4286,1836.7543,1837.67Q1834.701,1836.8937,1832.4501,1836.8854 Z M1832.5533,1840.2513L1832.5026,1840.3016Q1834.1224,1840.3016,1835.3622,1840.8331Q1836.6024,1841.3646,1837.4882,1842.326Q1838.1715,1843.0856,1838.7281,1844.6796Q1839.2091,1846.0719,1839.2089,1847.5648L1824.9354,1847.5668Q1825.3915,1844.1986,1827.3402,1842.1742Q1829.1869,1840.2518,1832.5507,1840.2513 Z"/>
</g>
<g style="fill:rgb(0,0,0); fill-opacity:1.0; stroke-linejoin: miter">
<path d="M1829.1427,1889.1246L1829.1427,1889.1271Q1826.9169,1889.1246,1825.1464,1889.7069Q1823.2228,1890.3397,1821.9325,1891.4027Q1820.6163,1892.4913,1819.857,1894.0602Q1819.1486,1895.5028,1819.1486,1897.5265Q1819.1488,1899.9562,1820.2372,1901.7279Q1821.3507,1903.5243,1823.2994,1904.6388Q1821.9327,1905.4484,1821.8314,1905.5492Q1821.1984,1906.1058,1820.7433,1906.714Q1820.2877,1907.3209,1820.1359,1907.9537Q1819.9337,1908.7633,1819.9337,1909.0927Q1819.9337,1910.4838,1820.5917,1911.42Q1821.224,1912.3563,1822.3629,1912.8121Q1820.212,1913.5714,1818.9467,1914.9882Q1817.681,1916.4059,1817.681,1918.3046Q1817.681,1919.569,1818.4147,1920.9105Q1819.0985,1922.1503,1820.5406,1923.1368Q1821.9073,1924.0743,1824.109,1924.6815Q1826.184,1925.2638,1829.1957,1925.2638Q1832.1569,1925.2638,1834.3834,1924.5292Q1836.6864,1923.7699,1838.2052,1922.5558Q1839.9261,1921.1635,1840.7103,1919.7716Q1841.5453,1918.2784,1841.5453,1916.4567Q1841.5453,1914.6095,1840.8116,1913.5468Q1839.9513,1912.2811,1838.787,1911.7245Q1837.4711,1911.0919,1835.9274,1910.7882Q1835.3959,1910.6864,1832.7135,1910.4335Q1830.5372,1910.2308,1829.4996,1910.2308Q1828.3353,1910.2308,1826.6652,1910.0289Q1825.5516,1909.9022,1824.6407,1909.3458Q1823.9066,1908.9147,1823.9066,1907.9537Q1823.9066,1907.3971,1824.337,1906.8148Q1824.868,1906.1058,1825.5768,1905.6757Q1827.1967,1906.1315,1829.0438,1906.1315Q1831.2709,1906.1315,1832.9918,1905.5492Q1834.6874,1904.9669,1836.1044,1903.8031Q1837.2938,1902.8165,1838.1034,1901.1456Q1838.8378,1899.6525,1838.8375,1897.6788Q1838.8375,1895.4513,1838.0021,1893.9584L1840.9635,1893.5282Q1842.0514,1893.3009,1842.0514,1892.4398L1842.0514,1890.744L1834.8895,1890.7465Q1833.599,1889.9601,1832.2069,1889.6063Q1830.7391,1889.2267,1829.0436,1889.2267L1829.1449,1889.1246 Z M1829.0944,1892.5919Q1831.8529,1892.5919,1833.3456,1894.0087Q1834.839,1895.4266,1834.839,1897.83Q1834.8392,1898.8429,1834.4852,1899.9562Q1834.1561,1900.9945,1833.3966,1901.6774Q1832.5619,1902.4113,1831.5746,1902.766Q1830.4105,1903.1705,1829.0946,1903.1705L1829.0946,1903.0697Q1827.7535,1903.0697,1826.716,1902.7145Q1825.7289,1902.3607,1824.8937,1901.6271Q1824.2357,1901.0448,1823.8053,1899.9562Q1823.4003,1898.9447,1823.4,1897.83Q1823.4,1895.3751,1824.8427,1894.0087Q1826.336,1892.5919,1829.0944,1892.5919 Z M1825.1466,1913.7484Q1827.5255,1914.0272,1827.8038,1914.0521Q1828.2845,1914.0775,1829.1957,1914.1036Q1830.0817,1914.128,1830.5372,1914.1539Q1831.0939,1914.1783,1833.1439,1914.4318Q1834.2826,1914.558,1835.2694,1914.8873Q1836.2057,1915.191,1836.7626,1915.8236Q1837.2938,1916.4305,1837.2938,1917.3671L1837.2435,1917.3693Q1837.2435,1918.2784,1836.6615,1919.2408Q1836.1298,1920.1007,1835.1176,1920.7079Q1833.9535,1921.391,1832.6122,1921.6698Q1830.7648,1922.0494,1829.297,1922.0494Q1827.5004,1922.0494,1825.9816,1921.7201Q1824.6913,1921.4413,1823.6537,1920.8602Q1822.7423,1920.3539,1822.2616,1919.5441Q1821.7806,1918.7345,1821.7806,1917.8988Q1821.7806,1916.482,1822.7174,1915.4698Q1823.6791,1914.4318,1825.1466,1913.7484 Z"/>
</g>
<g style="fill:rgb(0,0,0); fill-opacity:1.0; stroke-linejoin: miter">
<path d="M1832.4015,1836.8854Q1832.4254,1836.8854,1832.4491,1836.8854L1832.4491,1836.8876Q1832.476,1836.8854,1832.5026,1836.8854 Z"/>
</g>
<g style="fill:rgb(0,0,0); fill-opacity:1.0; stroke-linejoin: miter">
<path d="M1746.8386,1836.8851Q1746.8623,1836.8851,1746.8865,1836.8851L1746.8865,1836.8873Q1746.913,1836.8851,1746.9397,1836.8851 Z"/>
</g>
<g style="fill:rgb(255,255,255); fill-opacity:1.0; stroke-linejoin: miter">
<path d="M1731.3684,1827.6361L1731.3684,1827.6361L1731.3684,1827.6373L1726.529,1825.8312L1768.097,1777.8934C1768.6482,1777.2579,1769.4592,1776.909,1770.2996,1776.9454C1771.14,1776.982,1771.9176,1777.4003,1772.4114,1778.0812L1772.4114,1778.0812L1807.3732,1826.2931C1808.267,1827.5255,1807.9923,1829.2494,1806.7599,1830.143C1805.5272,1831.0367,1803.8036,1830.7623,1802.9098,1829.5297L1802.9098,1829.5297L1767.9481,1781.318L1772.2625,1781.5057L1730.6943,1829.4435C1729.9404,1830.3129,1728.726,1830.6224,1727.648,1830.2201C1726.5698,1829.8177,1725.855,1828.7882,1725.855,1827.6373L1725.855,1827.6373L1725.855,1827.6361C1725.855,1826.1136,1727.0892,1824.8795,1728.6117,1824.8795C1730.1342,1824.8795,1731.3684,1826.1136,1731.3684,1827.6361 Z"/>
</g>
<g style="fill:rgb(0,0,0); fill-opacity:1.0; stroke-linejoin: miter">
<path d="M1780.7528,1777.4183L1780.7313,1778.768Q1780.2961,1782.8656,1777.2998,1785.4623Q1774.2816,1788.0582,1769.9991,1787.816Q1765.9014,1787.381,1763.3046,1784.3844Q1762.4722,1783.4156,1761.9056,1782.2516L1761.4182,1781.0502Q1761.0034,1779.8058,1760.9291,1778.4335Q1760.82,1774.2162,1763.4735,1771.2762Q1766.1271,1768.3363,1770.3337,1768.0143Q1774.551,1767.9049,1777.4911,1770.5585Q1780.4312,1773.212,1780.7528,1777.4183"/>
</g>
</g>
</svg>